<svg width="940" height="600" viewBox="0 0 940 600" fill="none" xmlns="http://www.w3.org/2000/svg">
<g filter="url(#filter0_d_504_1239)">
<rect x="220" y="220" width="500" height="160" rx="30" fill="#2E5EDE"/>
<rect x="221" y="221" width="498" height="158" rx="29" stroke="#C9F9FE" stroke-width="2"/>
<path d="M333.026 271.396C329.282 271.396 326.186 270.172 323.738 267.724C321.314 265.276 320.102 262.168 320.102 258.4C320.102 254.632 321.314 251.524 323.738 249.076C326.186 246.628 329.282 245.404 333.026 245.404C334.946 245.404 336.722 245.776 338.354 246.52C340.01 247.24 341.402 248.272 342.53 249.616C343.682 250.96 344.486 252.532 344.942 254.332H341.738C341.066 252.508 339.962 251.08 338.426 250.048C336.89 249.016 335.09 248.5 333.026 248.5C330.194 248.5 327.866 249.436 326.042 251.308C324.242 253.156 323.342 255.532 323.342 258.436C323.342 261.316 324.242 263.68 326.042 265.528C327.866 267.376 330.194 268.3 333.026 268.3C335.138 268.3 336.974 267.76 338.534 266.68C340.094 265.576 341.198 264.052 341.846 262.108H345.086C344.366 264.964 342.914 267.232 340.73 268.912C338.57 270.568 336.002 271.396 333.026 271.396ZM357.807 271.432C355.887 271.432 354.135 271 352.551 270.136C350.967 269.248 349.731 268.036 348.843 266.5C347.955 264.94 347.511 263.2 347.511 261.28C347.511 258.352 348.483 255.928 350.427 254.008C352.395 252.088 354.855 251.128 357.807 251.128C359.751 251.128 361.503 251.572 363.063 252.46C364.647 253.324 365.883 254.536 366.771 256.096C367.683 257.632 368.139 259.36 368.139 261.28C368.139 264.184 367.155 266.608 365.187 268.552C363.219 270.472 360.759 271.432 357.807 271.432ZM352.659 266.464C354.027 267.808 355.743 268.48 357.807 268.48C359.895 268.48 361.611 267.808 362.955 266.464C364.323 265.096 365.007 263.368 365.007 261.28C365.007 259.192 364.323 257.476 362.955 256.132C361.611 254.764 359.895 254.08 357.807 254.08C355.743 254.08 354.027 254.764 352.659 256.132C351.315 257.476 350.643 259.192 350.643 261.28C350.643 263.368 351.315 265.096 352.659 266.464ZM382.15 251.128C384.43 251.128 386.242 251.896 387.586 253.432C388.954 254.968 389.638 256.948 389.638 259.372V271H386.578V260.092C386.578 258.772 386.374 257.656 385.966 256.744C385.582 255.832 384.994 255.136 384.202 254.656C383.434 254.176 382.486 253.936 381.358 253.936C379.702 253.936 378.31 254.56 377.182 255.808C376.054 257.032 375.49 258.556 375.49 260.38V271H372.43V251.56H374.59L375.202 254.62C375.682 253.876 376.27 253.252 376.966 252.748C377.662 252.22 378.454 251.824 379.342 251.56C380.23 251.272 381.166 251.128 382.15 251.128ZM411.223 251.56H413.275V268.264C413.275 271.408 412.423 273.88 410.719 275.68C409.015 277.48 406.687 278.38 403.735 278.38C401.359 278.38 399.355 277.792 397.723 276.616C396.115 275.44 395.047 273.82 394.519 271.756H397.579C398.011 272.956 398.779 273.892 399.883 274.564C401.011 275.236 402.295 275.572 403.735 275.572C405.703 275.572 407.275 274.948 408.451 273.7C409.651 272.476 410.251 270.796 410.251 268.66V267.472C408.403 269.416 406.051 270.388 403.195 270.388C400.483 270.388 398.203 269.464 396.355 267.616C394.531 265.768 393.619 263.488 393.619 260.776C393.619 259 394.039 257.38 394.879 255.916C395.719 254.428 396.871 253.264 398.335 252.424C399.799 251.56 401.419 251.128 403.195 251.128C404.707 251.128 406.111 251.44 407.407 252.064C408.727 252.664 409.831 253.504 410.719 254.584L411.223 251.56ZM403.519 267.436C404.791 267.436 405.943 267.148 406.975 266.572C408.007 265.996 408.811 265.204 409.387 264.196C409.963 263.188 410.251 262.048 410.251 260.776C410.251 258.832 409.615 257.236 408.343 255.988C407.071 254.716 405.463 254.08 403.519 254.08C401.575 254.08 399.955 254.716 398.659 255.988C397.387 257.26 396.751 258.856 396.751 260.776C396.751 262.672 397.387 264.256 398.659 265.528C399.955 266.8 401.575 267.436 403.519 267.436ZM427.921 251.452H429.649V254.368H427.669C425.917 254.368 424.549 254.908 423.565 255.988C422.605 257.044 422.125 258.532 422.125 260.452V271H419.065V251.56H421.225L421.729 254.512C423.145 252.472 425.209 251.452 427.921 251.452ZM448.554 251.56H451.002V271H448.446L448.122 268.048C447.21 269.128 446.094 269.968 444.774 270.568C443.478 271.144 442.05 271.432 440.49 271.432C437.634 271.432 435.246 270.472 433.326 268.552C431.406 266.608 430.446 264.184 430.446 261.28C430.446 258.376 431.406 255.964 433.326 254.044C435.246 252.1 437.634 251.128 440.49 251.128C442.074 251.128 443.514 251.428 444.81 252.028C446.13 252.628 447.246 253.468 448.158 254.548L448.554 251.56ZM435.594 266.428C436.962 267.796 438.678 268.48 440.742 268.48C442.806 268.48 444.51 267.796 445.854 266.428C447.198 265.06 447.87 263.344 447.87 261.28C447.87 259.216 447.198 257.5 445.854 256.132C444.51 254.764 442.806 254.08 440.742 254.08C438.678 254.08 436.962 254.776 435.594 256.168C434.25 257.536 433.578 259.24 433.578 261.28C433.578 263.32 434.25 265.036 435.594 266.428ZM464.834 268.156H466.958V271H464.438C462.35 271 460.706 270.4 459.506 269.2C458.306 267.976 457.706 266.308 457.706 264.196V254.332H454.286V253.792L460.298 247.456H460.766V251.56H466.85V254.332H460.766V264.088C460.766 264.976 460.922 265.72 461.234 266.32C461.546 266.92 462.002 267.376 462.602 267.688C463.226 268 463.97 268.156 464.834 268.156ZM478.999 271.432C476.383 271.432 474.283 270.652 472.699 269.092C471.139 267.508 470.359 265.408 470.359 262.792V251.56H473.419V262.288C473.419 263.56 473.647 264.664 474.103 265.6C474.559 266.512 475.207 267.22 476.047 267.724C476.887 268.228 477.871 268.48 478.999 268.48C480.727 268.48 482.083 267.928 483.067 266.824C484.051 265.72 484.543 264.208 484.543 262.288V251.56H487.603V262.792C487.603 265.408 486.823 267.508 485.263 269.092C483.703 270.652 481.615 271.432 478.999 271.432ZM493.105 271V244.612H496.165V271H493.105ZM518.516 251.56H520.964V271H518.408L518.084 268.048C517.172 269.128 516.056 269.968 514.736 270.568C513.44 271.144 512.012 271.432 510.452 271.432C507.596 271.432 505.208 270.472 503.288 268.552C501.368 266.608 500.408 264.184 500.408 261.28C500.408 258.376 501.368 255.964 503.288 254.044C505.208 252.1 507.596 251.128 510.452 251.128C512.036 251.128 513.476 251.428 514.772 252.028C516.092 252.628 517.208 253.468 518.12 254.548L518.516 251.56ZM505.556 266.428C506.924 267.796 508.64 268.48 510.704 268.48C512.768 268.48 514.472 267.796 515.816 266.428C517.16 265.06 517.832 263.344 517.832 261.28C517.832 259.216 517.16 257.5 515.816 256.132C514.472 254.764 512.768 254.08 510.704 254.08C508.64 254.08 506.924 254.776 505.556 256.168C504.212 257.536 503.54 259.24 503.54 261.28C503.54 263.32 504.212 265.036 505.556 266.428ZM534.796 268.156H536.92V271H534.4C532.312 271 530.668 270.4 529.468 269.2C528.268 267.976 527.668 266.308 527.668 264.196V254.332H524.248V253.792L530.26 247.456H530.728V251.56H536.812V254.332H530.728V264.088C530.728 264.976 530.884 265.72 531.196 266.32C531.508 266.92 531.964 267.376 532.564 267.688C533.188 268 533.932 268.156 534.796 268.156ZM540.538 248.176V244.684H543.85V248.176H540.538ZM540.682 271V251.56H543.742V271H540.682ZM558.281 271.432C556.361 271.432 554.609 271 553.025 270.136C551.441 269.248 550.205 268.036 549.317 266.5C548.429 264.94 547.985 263.2 547.985 261.28C547.985 258.352 548.957 255.928 550.901 254.008C552.869 252.088 555.329 251.128 558.281 251.128C560.225 251.128 561.977 251.572 563.537 252.46C565.121 253.324 566.357 254.536 567.245 256.096C568.157 257.632 568.613 259.36 568.613 261.28C568.613 264.184 567.629 266.608 565.661 268.552C563.693 270.472 561.233 271.432 558.281 271.432ZM553.133 266.464C554.501 267.808 556.217 268.48 558.281 268.48C560.369 268.48 562.085 267.808 563.429 266.464C564.797 265.096 565.481 263.368 565.481 261.28C565.481 259.192 564.797 257.476 563.429 256.132C562.085 254.764 560.369 254.08 558.281 254.08C556.217 254.08 554.501 254.764 553.133 256.132C551.789 257.476 551.117 259.192 551.117 261.28C551.117 263.368 551.789 265.096 553.133 266.464ZM582.623 251.128C584.903 251.128 586.715 251.896 588.059 253.432C589.427 254.968 590.111 256.948 590.111 259.372V271H587.051V260.092C587.051 258.772 586.847 257.656 586.439 256.744C586.055 255.832 585.467 255.136 584.675 254.656C583.907 254.176 582.959 253.936 581.831 253.936C580.175 253.936 578.783 254.56 577.655 255.808C576.527 257.032 575.963 258.556 575.963 260.38V271H572.903V251.56H575.063L575.675 254.62C576.155 253.876 576.743 253.252 577.439 252.748C578.135 252.22 578.927 251.824 579.815 251.56C580.703 251.272 581.639 251.128 582.623 251.128ZM601.797 271.432C600.261 271.432 598.917 271.18 597.765 270.676C596.613 270.148 595.713 269.404 595.065 268.444C594.417 267.46 594.069 266.32 594.021 265.024H597.009C597.081 266.152 597.561 267.028 598.449 267.652C599.337 268.276 600.477 268.588 601.869 268.588C603.237 268.588 604.341 268.324 605.181 267.796C606.021 267.244 606.441 266.5 606.441 265.564C606.441 265.204 606.381 264.88 606.261 264.592C606.165 264.304 605.985 264.052 605.721 263.836C605.457 263.62 605.193 263.44 604.929 263.296C604.665 263.152 604.305 263.02 603.849 262.9C603.417 262.78 603.033 262.696 602.697 262.648C602.385 262.576 601.953 262.492 601.401 262.396C600.777 262.3 600.297 262.216 599.961 262.144C599.625 262.072 599.169 261.964 598.593 261.82C598.017 261.652 597.561 261.484 597.225 261.316C596.889 261.148 596.517 260.92 596.109 260.632C595.701 260.344 595.389 260.032 595.173 259.696C594.957 259.36 594.765 258.94 594.597 258.436C594.453 257.932 594.381 257.368 594.381 256.744C594.381 255.928 594.549 255.172 594.885 254.476C595.245 253.78 595.737 253.192 596.361 252.712C597.009 252.208 597.789 251.824 598.701 251.56C599.613 251.272 600.609 251.128 601.689 251.128C603.897 251.128 605.661 251.668 606.981 252.748C608.301 253.828 608.985 255.292 609.033 257.14H606.153C606.105 256.444 605.889 255.856 605.505 255.376C605.145 254.872 604.629 254.5 603.957 254.26C603.309 253.996 602.541 253.864 601.653 253.864C600.765 253.864 599.997 253.984 599.349 254.224C598.701 254.44 598.197 254.764 597.837 255.196C597.501 255.628 597.333 256.12 597.333 256.672C597.333 257.056 597.429 257.404 597.621 257.716C597.813 258.004 598.029 258.244 598.269 258.436C598.509 258.604 598.881 258.772 599.385 258.94C599.889 259.084 600.309 259.192 600.645 259.264C601.005 259.312 601.509 259.396 602.157 259.516C602.829 259.612 603.321 259.696 603.633 259.768C603.969 259.816 604.437 259.924 605.037 260.092C605.661 260.236 606.141 260.392 606.477 260.56C606.813 260.728 607.197 260.968 607.629 261.28C608.085 261.568 608.421 261.904 608.637 262.288C608.853 262.648 609.045 263.104 609.213 263.656C609.381 264.184 609.465 264.772 609.465 265.42C609.465 267.244 608.757 268.708 607.341 269.812C605.949 270.892 604.101 271.432 601.797 271.432ZM614.098 264.088V245.08H617.158V264.088H614.098ZM613.882 271V267.184H617.41V271H613.882Z" fill="#67EDFF"/>
<path d="M419.033 328.8L409.745 343.956V354H406.505V343.956L397.253 328.8H400.709L408.125 340.968L415.577 328.8H419.033ZM428.543 354.432C426.623 354.432 424.871 354 423.287 353.136C421.703 352.248 420.467 351.036 419.579 349.5C418.691 347.94 418.247 346.2 418.247 344.28C418.247 341.352 419.219 338.928 421.163 337.008C423.131 335.088 425.591 334.128 428.543 334.128C430.487 334.128 432.239 334.572 433.799 335.46C435.383 336.324 436.619 337.536 437.507 339.096C438.419 340.632 438.875 342.36 438.875 344.28C438.875 347.184 437.891 349.608 435.923 351.552C433.955 353.472 431.495 354.432 428.543 354.432ZM423.395 349.464C424.763 350.808 426.479 351.48 428.543 351.48C430.631 351.48 432.347 350.808 433.691 349.464C435.059 348.096 435.743 346.368 435.743 344.28C435.743 342.192 435.059 340.476 433.691 339.132C432.347 337.764 430.631 337.08 428.543 337.08C426.479 337.08 424.763 337.764 423.395 339.132C422.051 340.476 421.379 342.192 421.379 344.28C421.379 346.368 422.051 348.096 423.395 349.464ZM451.445 354.432C448.829 354.432 446.729 353.652 445.145 352.092C443.585 350.508 442.805 348.408 442.805 345.792V334.56H445.865V345.288C445.865 346.56 446.093 347.664 446.549 348.6C447.005 349.512 447.653 350.22 448.493 350.724C449.333 351.228 450.317 351.48 451.445 351.48C453.173 351.48 454.529 350.928 455.513 349.824C456.497 348.72 456.989 347.208 456.989 345.288V334.56H460.049V345.792C460.049 348.408 459.269 350.508 457.709 352.092C456.149 353.652 454.061 354.432 451.445 354.432ZM497.739 334.56H500.835L494.211 354H491.727L486.219 340.752L480.747 354H478.263L471.675 334.56H474.879L479.703 348.888L485.679 334.848H486.795L492.771 348.996L497.739 334.56ZM504.098 331.176V327.684H507.41V331.176H504.098ZM504.242 354V334.56H507.302V354H504.242ZM522.812 334.128C525.092 334.128 526.904 334.896 528.248 336.432C529.616 337.968 530.3 339.948 530.3 342.372V354H527.24V343.092C527.24 341.772 527.036 340.656 526.628 339.744C526.244 338.832 525.656 338.136 524.864 337.656C524.096 337.176 523.148 336.936 522.02 336.936C520.364 336.936 518.972 337.56 517.844 338.808C516.716 340.032 516.152 341.556 516.152 343.38V354H513.092V334.56H515.252L515.864 337.62C516.344 336.876 516.932 336.252 517.628 335.748C518.324 335.22 519.116 334.824 520.004 334.56C520.892 334.272 521.828 334.128 522.812 334.128ZM536.19 347.088V328.08H539.25V347.088H536.19ZM535.974 354V350.184H539.502V354H535.974Z" fill="#67EDFF"/>
<path d="M375.901 295.728C377.181 295.728 378.333 296.024 379.357 296.616C380.381 297.192 381.181 298 381.757 299.04C382.333 300.08 382.621 301.24 382.621 302.52C382.621 304.472 381.981 306.096 380.701 307.392C379.437 308.672 377.837 309.312 375.901 309.312C374.237 309.312 372.805 308.792 371.605 307.752V313.656H368.941V296.04H370.741L371.245 297.624C372.493 296.36 374.045 295.728 375.901 295.728ZM372.661 305.568C373.461 306.368 374.469 306.768 375.685 306.768C376.917 306.768 377.933 306.368 378.733 305.568C379.533 304.752 379.933 303.736 379.933 302.52C379.933 301.304 379.533 300.296 378.733 299.496C377.933 298.68 376.925 298.272 375.709 298.272C374.909 298.272 374.181 298.456 373.525 298.824C372.869 299.192 372.357 299.704 371.989 300.36C371.637 301 371.461 301.72 371.461 302.52C371.461 303.736 371.861 304.752 372.661 305.568ZM391.464 295.968H392.616V298.488H391.224C389.016 298.488 387.912 299.688 387.912 302.088V309H385.248V296.04H387.048L387.504 297.816C388.432 296.584 389.752 295.968 391.464 295.968ZM406.414 302.544C406.414 302.784 406.398 303.08 406.366 303.432H395.854C396.014 304.472 396.446 305.296 397.15 305.904C397.87 306.512 398.758 306.816 399.814 306.816C400.326 306.816 400.806 306.744 401.254 306.6C401.702 306.44 402.094 306.224 402.43 305.952C402.782 305.664 403.07 305.32 403.294 304.92H406.102C405.59 306.296 404.774 307.376 403.654 308.16C402.534 308.928 401.254 309.312 399.814 309.312C397.91 309.312 396.318 308.664 395.038 307.368C393.774 306.072 393.142 304.456 393.142 302.52C393.142 300.584 393.774 298.968 395.038 297.672C396.318 296.376 397.91 295.728 399.814 295.728C401.11 295.728 402.262 296.04 403.27 296.664C404.278 297.272 405.054 298.096 405.598 299.136C406.142 300.16 406.414 301.296 406.414 302.544ZM399.814 298.128C398.822 298.128 397.974 298.408 397.27 298.968C396.582 299.528 396.126 300.296 395.902 301.272H403.75C403.59 300.616 403.326 300.056 402.958 299.592C402.59 299.112 402.134 298.752 401.59 298.512C401.062 298.256 400.47 298.128 399.814 298.128ZM413.322 309.312C411.738 309.312 410.466 308.912 409.506 308.112C408.546 307.312 408.05 306.24 408.018 304.896H410.634C410.666 305.552 410.93 306.064 411.426 306.432C411.938 306.784 412.602 306.96 413.418 306.96C413.898 306.96 414.322 306.896 414.69 306.768C415.074 306.64 415.378 306.448 415.602 306.192C415.826 305.936 415.938 305.632 415.938 305.28C415.938 305.04 415.882 304.832 415.77 304.656C415.658 304.464 415.522 304.312 415.362 304.2C415.202 304.088 414.97 303.984 414.666 303.888C414.378 303.792 414.114 303.72 413.874 303.672C413.65 303.624 413.346 303.568 412.962 303.504C412.562 303.44 412.242 303.384 412.002 303.336C411.762 303.288 411.458 303.216 411.09 303.12C410.722 303.008 410.418 302.896 410.178 302.784C409.954 302.656 409.706 302.496 409.434 302.304C409.162 302.112 408.946 301.896 408.786 301.656C408.642 301.416 408.514 301.128 408.402 300.792C408.306 300.44 408.258 300.056 408.258 299.64C408.258 298.472 408.714 297.528 409.626 296.808C410.554 296.088 411.77 295.728 413.274 295.728C414.778 295.728 415.986 296.104 416.898 296.856C417.81 297.608 418.274 298.616 418.29 299.88H415.77C415.754 299.272 415.522 298.808 415.074 298.488C414.626 298.152 414.01 297.984 413.226 297.984C412.49 297.984 411.906 298.128 411.474 298.416C411.042 298.704 410.826 299.08 410.826 299.544C410.826 299.736 410.858 299.904 410.922 300.048C410.986 300.192 411.09 300.32 411.234 300.432C411.394 300.544 411.538 300.64 411.666 300.72C411.81 300.784 412.018 300.848 412.29 300.912C412.562 300.976 412.786 301.024 412.962 301.056C413.138 301.088 413.394 301.128 413.73 301.176C414.162 301.256 414.482 301.32 414.69 301.368C414.914 301.4 415.226 301.472 415.626 301.584C416.026 301.68 416.338 301.784 416.562 301.896C416.786 302.008 417.042 302.168 417.33 302.376C417.634 302.568 417.858 302.792 418.002 303.048C418.162 303.288 418.298 303.592 418.41 303.96C418.522 304.328 418.578 304.728 418.578 305.16C418.578 306.424 418.098 307.432 417.138 308.184C416.178 308.936 414.906 309.312 413.322 309.312ZM425.504 309.312C423.92 309.312 422.648 308.912 421.688 308.112C420.728 307.312 420.232 306.24 420.2 304.896H422.816C422.848 305.552 423.112 306.064 423.608 306.432C424.12 306.784 424.784 306.96 425.6 306.96C426.08 306.96 426.504 306.896 426.872 306.768C427.256 306.64 427.56 306.448 427.784 306.192C428.008 305.936 428.12 305.632 428.12 305.28C428.12 305.04 428.064 304.832 427.952 304.656C427.84 304.464 427.704 304.312 427.544 304.2C427.384 304.088 427.152 303.984 426.848 303.888C426.56 303.792 426.296 303.72 426.056 303.672C425.832 303.624 425.528 303.568 425.144 303.504C424.744 303.44 424.424 303.384 424.184 303.336C423.944 303.288 423.64 303.216 423.272 303.12C422.904 303.008 422.6 302.896 422.36 302.784C422.136 302.656 421.888 302.496 421.616 302.304C421.344 302.112 421.128 301.896 420.968 301.656C420.824 301.416 420.696 301.128 420.584 300.792C420.488 300.44 420.44 300.056 420.44 299.64C420.44 298.472 420.896 297.528 421.808 296.808C422.736 296.088 423.952 295.728 425.456 295.728C426.96 295.728 428.168 296.104 429.08 296.856C429.992 297.608 430.456 298.616 430.472 299.88H427.952C427.936 299.272 427.704 298.808 427.256 298.488C426.808 298.152 426.192 297.984 425.408 297.984C424.672 297.984 424.088 298.128 423.656 298.416C423.224 298.704 423.008 299.08 423.008 299.544C423.008 299.736 423.04 299.904 423.104 300.048C423.168 300.192 423.272 300.32 423.416 300.432C423.576 300.544 423.72 300.64 423.848 300.72C423.992 300.784 424.2 300.848 424.472 300.912C424.744 300.976 424.968 301.024 425.144 301.056C425.32 301.088 425.576 301.128 425.912 301.176C426.344 301.256 426.664 301.32 426.872 301.368C427.096 301.4 427.408 301.472 427.808 301.584C428.208 301.68 428.52 301.784 428.744 301.896C428.968 302.008 429.224 302.168 429.512 302.376C429.816 302.568 430.04 302.792 430.184 303.048C430.344 303.288 430.48 303.592 430.592 303.96C430.704 304.328 430.76 304.728 430.76 305.16C430.76 306.424 430.28 307.432 429.32 308.184C428.36 308.936 427.088 309.312 425.504 309.312ZM444.582 306.576H446.046V309H444.078C443.134 309 442.318 308.816 441.63 308.448C440.942 308.08 440.414 307.552 440.046 306.864C439.678 306.16 439.494 305.336 439.494 304.392V298.32H437.166V297.816L441.678 293.016H442.134V296.04H445.974V298.32H442.158V304.176C442.158 304.944 442.366 305.536 442.782 305.952C443.198 306.368 443.798 306.576 444.582 306.576ZM459.181 307.392C457.869 308.672 456.221 309.312 454.237 309.312C452.253 309.312 450.597 308.672 449.269 307.392C447.957 306.096 447.301 304.472 447.301 302.52C447.301 301.24 447.597 300.08 448.189 299.04C448.797 298 449.629 297.192 450.685 296.616C451.757 296.024 452.941 295.728 454.237 295.728C455.533 295.728 456.709 296.024 457.765 296.616C458.837 297.192 459.669 298 460.261 299.04C460.869 300.08 461.173 301.24 461.173 302.52C461.173 304.472 460.509 306.096 459.181 307.392ZM454.237 306.768C455.053 306.768 455.781 306.592 456.421 306.24C457.061 305.872 457.557 305.368 457.909 304.728C458.277 304.072 458.461 303.336 458.461 302.52C458.461 301.288 458.061 300.272 457.261 299.472C456.477 298.672 455.469 298.272 454.237 298.272C453.005 298.272 451.989 298.672 451.189 299.472C450.405 300.272 450.013 301.288 450.013 302.52C450.013 303.752 450.405 304.768 451.189 305.568C451.989 306.368 453.005 306.768 454.237 306.768ZM475.41 309.312C473.49 309.312 471.874 308.664 470.562 307.368C469.266 306.056 468.618 304.44 468.618 302.52C468.618 300.584 469.266 298.968 470.562 297.672C471.874 296.376 473.498 295.728 475.434 295.728C477.018 295.728 478.394 296.176 479.562 297.072C480.73 297.968 481.49 299.16 481.842 300.648H479.202C478.866 299.912 478.362 299.336 477.69 298.92C477.018 298.488 476.258 298.272 475.41 298.272C474.658 298.272 473.97 298.456 473.346 298.824C472.722 299.192 472.226 299.704 471.858 300.36C471.506 301 471.33 301.72 471.33 302.52C471.33 303.72 471.722 304.728 472.506 305.544C473.29 306.36 474.258 306.768 475.41 306.768C476.258 306.768 477.01 306.552 477.666 306.12C478.338 305.688 478.85 305.072 479.202 304.272H481.89C481.522 305.792 480.746 307.016 479.562 307.944C478.394 308.856 477.01 309.312 475.41 309.312ZM495.188 307.392C493.876 308.672 492.228 309.312 490.244 309.312C488.26 309.312 486.604 308.672 485.276 307.392C483.964 306.096 483.308 304.472 483.308 302.52C483.308 301.24 483.604 300.08 484.196 299.04C484.804 298 485.636 297.192 486.692 296.616C487.764 296.024 488.948 295.728 490.244 295.728C491.54 295.728 492.716 296.024 493.772 296.616C494.844 297.192 495.676 298 496.268 299.04C496.876 300.08 497.18 301.24 497.18 302.52C497.18 304.472 496.516 306.096 495.188 307.392ZM490.244 306.768C491.06 306.768 491.788 306.592 492.428 306.24C493.068 305.872 493.564 305.368 493.916 304.728C494.284 304.072 494.468 303.336 494.468 302.52C494.468 301.288 494.068 300.272 493.268 299.472C492.484 298.672 491.476 298.272 490.244 298.272C489.012 298.272 487.996 298.672 487.196 299.472C486.412 300.272 486.02 301.288 486.02 302.52C486.02 303.752 486.412 304.768 487.196 305.568C487.996 306.368 489.012 306.768 490.244 306.768ZM506.642 295.752C508.146 295.752 509.338 296.256 510.218 297.264C511.114 298.272 511.562 299.584 511.562 301.2V309H508.898V301.728C508.898 300.56 508.642 299.672 508.13 299.064C507.634 298.44 506.898 298.128 505.922 298.128C504.914 298.128 504.082 298.496 503.426 299.232C502.77 299.968 502.442 300.912 502.442 302.064V309H499.778V296.04H501.626L502.154 297.84C502.65 297.184 503.282 296.672 504.05 296.304C504.834 295.936 505.698 295.752 506.642 295.752ZM520.603 306.576H522.067V309H520.099C519.155 309 518.339 308.816 517.651 308.448C516.963 308.08 516.435 307.552 516.067 306.864C515.699 306.16 515.515 305.336 515.515 304.392V298.32H513.187V297.816L517.699 293.016H518.155V296.04H521.995V298.32H518.179V304.176C518.179 304.944 518.387 305.536 518.803 305.952C519.219 306.368 519.819 306.576 520.603 306.576ZM524.375 294.024V291.288H527.135V294.024H524.375ZM524.423 309V296.04H527.087V309H524.423ZM537.492 295.752C538.996 295.752 540.188 296.256 541.068 297.264C541.964 298.272 542.412 299.584 542.412 301.2V309H539.748V301.728C539.748 300.56 539.492 299.672 538.98 299.064C538.484 298.44 537.748 298.128 536.772 298.128C535.764 298.128 534.932 298.496 534.276 299.232C533.62 299.968 533.292 300.912 533.292 302.064V309H530.628V296.04H532.476L533.004 297.84C533.5 297.184 534.132 296.672 534.9 296.304C535.684 295.936 536.548 295.752 537.492 295.752ZM551.474 309.312C549.698 309.312 548.274 308.784 547.202 307.728C546.13 306.672 545.594 305.272 545.594 303.528V296.04H548.258V303.144C548.258 304.28 548.546 305.168 549.122 305.808C549.698 306.448 550.482 306.768 551.474 306.768C552.482 306.768 553.274 306.448 553.85 305.808C554.426 305.152 554.714 304.264 554.714 303.144V296.04H557.378V303.528C557.378 305.272 556.842 306.672 555.77 307.728C554.698 308.784 553.266 309.312 551.474 309.312ZM573.022 302.544C573.022 302.784 573.006 303.08 572.974 303.432H562.462C562.622 304.472 563.054 305.296 563.758 305.904C564.478 306.512 565.366 306.816 566.422 306.816C566.934 306.816 567.414 306.744 567.862 306.6C568.31 306.44 568.702 306.224 569.038 305.952C569.39 305.664 569.678 305.32 569.902 304.92H572.71C572.198 306.296 571.382 307.376 570.262 308.16C569.142 308.928 567.862 309.312 566.422 309.312C564.518 309.312 562.926 308.664 561.646 307.368C560.382 306.072 559.75 304.456 559.75 302.52C559.75 300.584 560.382 298.968 561.646 297.672C562.926 296.376 564.518 295.728 566.422 295.728C567.718 295.728 568.87 296.04 569.878 296.664C570.886 297.272 571.662 298.096 572.206 299.136C572.75 300.16 573.022 301.296 573.022 302.544ZM566.422 298.128C565.43 298.128 564.582 298.408 563.878 298.968C563.19 299.528 562.734 300.296 562.51 301.272H570.358C570.198 300.616 569.934 300.056 569.566 299.592C569.198 299.112 568.742 298.752 568.198 298.512C567.67 298.256 567.078 298.128 566.422 298.128Z" fill="#DADBFF"/>
</g>
<defs>
<filter id="filter0_d_504_1239" x="0" y="0" width="940" height="600" filterUnits="userSpaceOnUse" color-interpolation-filters="sRGB">
<feFlood flood-opacity="0" result="BackgroundImageFix"/>
<feColorMatrix in="SourceAlpha" type="matrix" values="0 0 0 0 0 0 0 0 0 0 0 0 0 0 0 0 0 0 127 0" result="hardAlpha"/>
<feMorphology radius="100" operator="dilate" in="SourceAlpha" result="effect1_dropShadow_504_1239"/>
<feOffset/>
<feGaussianBlur stdDeviation="60"/>
<feComposite in2="hardAlpha" operator="out"/>
<feColorMatrix type="matrix" values="0 0 0 0 0.2 0 0 0 0 0.211765 0 0 0 0 0.231373 0 0 0 1 0"/>
<feBlend mode="normal" in2="BackgroundImageFix" result="effect1_dropShadow_504_1239"/>
<feBlend mode="normal" in="SourceGraphic" in2="effect1_dropShadow_504_1239" result="shape"/>
</filter>
</defs>
</svg>
