<svg width="940" height="600" viewBox="0 0 940 600" fill="none" xmlns="http://www.w3.org/2000/svg">
<g filter="url(#filter0_d_504_1245)">
<rect x="220" y="220" width="500" height="160" rx="30" fill="#BA0466"/>
<rect x="221" y="221" width="498" height="158" rx="29" stroke="#F2C1D3" stroke-width="2"/>
<path d="M367.078 244.8L357.79 259.956V270H354.55V259.956L345.298 244.8H348.754L356.17 256.968L363.622 244.8H367.078ZM376.588 270.432C374.668 270.432 372.916 270 371.332 269.136C369.748 268.248 368.512 267.036 367.624 265.5C366.736 263.94 366.292 262.2 366.292 260.28C366.292 257.352 367.264 254.928 369.208 253.008C371.176 251.088 373.636 250.128 376.588 250.128C378.532 250.128 380.284 250.572 381.844 251.46C383.428 252.324 384.664 253.536 385.552 255.096C386.464 256.632 386.92 258.36 386.92 260.28C386.92 263.184 385.936 265.608 383.968 267.552C382 269.472 379.54 270.432 376.588 270.432ZM371.44 265.464C372.808 266.808 374.524 267.48 376.588 267.48C378.676 267.48 380.392 266.808 381.736 265.464C383.104 264.096 383.788 262.368 383.788 260.28C383.788 258.192 383.104 256.476 381.736 255.132C380.392 253.764 378.676 253.08 376.588 253.08C374.524 253.08 372.808 253.764 371.44 255.132C370.096 256.476 369.424 258.192 369.424 260.28C369.424 262.368 370.096 264.096 371.44 265.464ZM399.49 270.432C396.874 270.432 394.774 269.652 393.19 268.092C391.63 266.508 390.85 264.408 390.85 261.792V250.56H393.91V261.288C393.91 262.56 394.138 263.664 394.594 264.6C395.05 265.512 395.698 266.22 396.538 266.724C397.378 267.228 398.362 267.48 399.49 267.48C401.218 267.48 402.574 266.928 403.558 265.824C404.542 264.72 405.034 263.208 405.034 261.288V250.56H408.094V261.792C408.094 264.408 407.314 266.508 405.754 268.092C404.194 269.652 402.106 270.432 399.49 270.432ZM422.658 270V243.612H425.718V270H422.658ZM440.257 270.432C438.337 270.432 436.585 270 435.001 269.136C433.417 268.248 432.181 267.036 431.293 265.5C430.405 263.94 429.961 262.2 429.961 260.28C429.961 257.352 430.933 254.928 432.877 253.008C434.845 251.088 437.305 250.128 440.257 250.128C442.201 250.128 443.953 250.572 445.513 251.46C447.097 252.324 448.333 253.536 449.221 255.096C450.133 256.632 450.589 258.36 450.589 260.28C450.589 263.184 449.605 265.608 447.637 267.552C445.669 269.472 443.209 270.432 440.257 270.432ZM435.109 265.464C436.477 266.808 438.193 267.48 440.257 267.48C442.345 267.48 444.061 266.808 445.405 265.464C446.773 264.096 447.457 262.368 447.457 260.28C447.457 258.192 446.773 256.476 445.405 255.132C444.061 253.764 442.345 253.08 440.257 253.08C438.193 253.08 436.477 253.764 435.109 255.132C433.765 256.476 433.093 258.192 433.093 260.28C433.093 262.368 433.765 264.096 435.109 265.464ZM461.036 270.432C459.5 270.432 458.156 270.18 457.004 269.676C455.852 269.148 454.952 268.404 454.304 267.444C453.656 266.46 453.308 265.32 453.26 264.024H456.248C456.32 265.152 456.8 266.028 457.688 266.652C458.576 267.276 459.716 267.588 461.108 267.588C462.476 267.588 463.58 267.324 464.42 266.796C465.26 266.244 465.68 265.5 465.68 264.564C465.68 264.204 465.62 263.88 465.5 263.592C465.404 263.304 465.224 263.052 464.96 262.836C464.696 262.62 464.432 262.44 464.168 262.296C463.904 262.152 463.544 262.02 463.088 261.9C462.656 261.78 462.272 261.696 461.936 261.648C461.624 261.576 461.192 261.492 460.64 261.396C460.016 261.3 459.536 261.216 459.2 261.144C458.864 261.072 458.408 260.964 457.832 260.82C457.256 260.652 456.8 260.484 456.464 260.316C456.128 260.148 455.756 259.92 455.348 259.632C454.94 259.344 454.628 259.032 454.412 258.696C454.196 258.36 454.004 257.94 453.836 257.436C453.692 256.932 453.62 256.368 453.62 255.744C453.62 254.928 453.788 254.172 454.124 253.476C454.484 252.78 454.976 252.192 455.6 251.712C456.248 251.208 457.028 250.824 457.94 250.56C458.852 250.272 459.848 250.128 460.928 250.128C463.136 250.128 464.9 250.668 466.22 251.748C467.54 252.828 468.224 254.292 468.272 256.14H465.392C465.344 255.444 465.128 254.856 464.744 254.376C464.384 253.872 463.868 253.5 463.196 253.26C462.548 252.996 461.78 252.864 460.892 252.864C460.004 252.864 459.236 252.984 458.588 253.224C457.94 253.44 457.436 253.764 457.076 254.196C456.74 254.628 456.572 255.12 456.572 255.672C456.572 256.056 456.668 256.404 456.86 256.716C457.052 257.004 457.268 257.244 457.508 257.436C457.748 257.604 458.12 257.772 458.624 257.94C459.128 258.084 459.548 258.192 459.884 258.264C460.244 258.312 460.748 258.396 461.396 258.516C462.068 258.612 462.56 258.696 462.872 258.768C463.208 258.816 463.676 258.924 464.276 259.092C464.9 259.236 465.38 259.392 465.716 259.56C466.052 259.728 466.436 259.968 466.868 260.28C467.324 260.568 467.66 260.904 467.876 261.288C468.092 261.648 468.284 262.104 468.452 262.656C468.62 263.184 468.704 263.772 468.704 264.42C468.704 266.244 467.996 267.708 466.58 268.812C465.188 269.892 463.34 270.432 461.036 270.432ZM491.157 260.352C491.157 260.616 491.133 260.988 491.085 261.468H474.489C474.729 263.268 475.473 264.72 476.721 265.824C477.969 266.904 479.505 267.444 481.329 267.444C482.673 267.444 483.861 267.156 484.893 266.58C485.949 265.98 486.789 265.14 487.413 264.06H490.617C489.801 266.076 488.577 267.648 486.945 268.776C485.313 269.88 483.441 270.432 481.329 270.432C478.521 270.432 476.169 269.46 474.273 267.516C472.377 265.572 471.429 263.16 471.429 260.28C471.429 257.376 472.377 254.964 474.273 253.044C476.169 251.1 478.521 250.128 481.329 250.128C484.233 250.128 486.597 251.112 488.421 253.08C490.245 255.048 491.157 257.472 491.157 260.352ZM481.329 253.044C480.177 253.044 479.121 253.272 478.161 253.728C477.225 254.184 476.445 254.844 475.821 255.708C475.197 256.548 474.777 257.52 474.561 258.624H488.061C487.845 257.496 487.425 256.512 486.801 255.672C486.177 254.808 485.397 254.16 484.461 253.728C483.525 253.272 482.481 253.044 481.329 253.044ZM514.145 250.128C516.425 250.128 518.237 250.896 519.581 252.432C520.949 253.968 521.633 255.948 521.633 258.372V270H518.573V259.092C518.573 257.772 518.369 256.656 517.961 255.744C517.577 254.832 516.989 254.136 516.197 253.656C515.429 253.176 514.481 252.936 513.353 252.936C511.697 252.936 510.305 253.56 509.177 254.808C508.049 256.032 507.485 257.556 507.485 259.38V270H504.425V250.56H506.585L507.197 253.62C507.677 252.876 508.265 252.252 508.961 251.748C509.657 251.22 510.449 250.824 511.337 250.56C512.225 250.272 513.161 250.128 514.145 250.128ZM535.91 270.432C533.99 270.432 532.238 270 530.654 269.136C529.07 268.248 527.834 267.036 526.946 265.5C526.058 263.94 525.614 262.2 525.614 260.28C525.614 257.352 526.586 254.928 528.53 253.008C530.498 251.088 532.958 250.128 535.91 250.128C537.854 250.128 539.606 250.572 541.166 251.46C542.75 252.324 543.986 253.536 544.874 255.096C545.786 256.632 546.242 258.36 546.242 260.28C546.242 263.184 545.258 265.608 543.29 267.552C541.322 269.472 538.862 270.432 535.91 270.432ZM530.762 265.464C532.13 266.808 533.846 267.48 535.91 267.48C537.998 267.48 539.714 266.808 541.058 265.464C542.426 264.096 543.11 262.368 543.11 260.28C543.11 258.192 542.426 256.476 541.058 255.132C539.714 253.764 537.998 253.08 535.91 253.08C533.846 253.08 532.13 253.764 530.762 255.132C529.418 256.476 528.746 258.192 528.746 260.28C528.746 262.368 529.418 264.096 530.762 265.464ZM573.939 250.56H577.035L570.411 270H567.927L562.419 256.752L556.947 270H554.463L547.875 250.56H551.079L555.903 264.888L561.879 250.848H562.995L568.971 264.996L573.939 250.56ZM592.758 274.788C589.35 269.916 587.646 264.384 587.646 258.192C587.646 251.976 589.35 246.408 592.758 241.488H596.142C594.534 243.672 593.214 246.216 592.182 249.12C591.174 252.024 590.67 255.048 590.67 258.192C590.67 261.336 591.174 264.36 592.182 267.264C593.214 270.168 594.534 272.676 596.142 274.788H592.758Z" fill="#FFAA9E"/>
<path d="M402.013 329.8C405.709 329.8 408.757 330.988 411.157 333.364C413.581 335.74 414.793 338.752 414.793 342.4C414.793 346.048 413.581 349.06 411.157 351.436C408.757 353.812 405.709 355 402.013 355H393.625V329.8H402.013ZM401.905 352.048C404.737 352.048 407.053 351.136 408.853 349.312C410.653 347.488 411.553 345.184 411.553 342.4C411.553 340.552 411.145 338.896 410.329 337.432C409.513 335.968 408.373 334.828 406.909 334.012C405.445 333.172 403.777 332.752 401.905 332.752H396.757V352.048H401.905ZM428.055 355.432C426.135 355.432 424.383 355 422.799 354.136C421.215 353.248 419.979 352.036 419.091 350.5C418.203 348.94 417.759 347.2 417.759 345.28C417.759 342.352 418.731 339.928 420.675 338.008C422.643 336.088 425.103 335.128 428.055 335.128C429.999 335.128 431.751 335.572 433.311 336.46C434.895 337.324 436.131 338.536 437.019 340.096C437.931 341.632 438.387 343.36 438.387 345.28C438.387 348.184 437.403 350.608 435.435 352.552C433.467 354.472 431.007 355.432 428.055 355.432ZM422.907 350.464C424.275 351.808 425.991 352.48 428.055 352.48C430.143 352.48 431.859 351.808 433.203 350.464C434.571 349.096 435.255 347.368 435.255 345.28C435.255 343.192 434.571 341.476 433.203 340.132C431.859 338.764 430.143 338.08 428.055 338.08C425.991 338.08 424.275 338.764 422.907 340.132C421.563 341.476 420.891 343.192 420.891 345.28C420.891 347.368 421.563 349.096 422.907 350.464ZM452.397 335.128C454.677 335.128 456.489 335.896 457.833 337.432C459.201 338.968 459.885 340.948 459.885 343.372V355H456.825V344.092C456.825 342.772 456.621 341.656 456.213 340.744C455.829 339.832 455.241 339.136 454.449 338.656C453.681 338.176 452.733 337.936 451.605 337.936C449.949 337.936 448.557 338.56 447.429 339.808C446.301 341.032 445.737 342.556 445.737 344.38V355H442.677V335.56H444.837L445.449 338.62C445.929 337.876 446.517 337.252 447.213 336.748C447.909 336.22 448.701 335.824 449.589 335.56C450.477 335.272 451.413 335.128 452.397 335.128ZM464.24 337.72V335.992C465.512 335.56 466.148 334.54 466.148 332.932H464.096V329.152H467.768V332.644C467.768 335.356 466.592 337.048 464.24 337.72ZM480.395 352.156H482.519V355H479.999C477.911 355 476.267 354.4 475.067 353.2C473.867 351.976 473.267 350.308 473.267 348.196V338.332H469.847V337.792L475.859 331.456H476.327V335.56H482.411V338.332H476.327V348.088C476.327 348.976 476.483 349.72 476.795 350.32C477.107 350.92 477.563 351.376 478.163 351.688C478.787 352 479.531 352.156 480.395 352.156ZM503.911 355.432C502.015 355.432 500.287 355 498.727 354.136C497.191 353.248 495.979 352.024 495.091 350.464C494.227 348.904 493.795 347.176 493.795 345.28C493.795 342.376 494.755 339.964 496.675 338.044C498.619 336.1 501.031 335.128 503.911 335.128C506.215 335.128 508.207 335.764 509.887 337.036C511.591 338.308 512.743 340 513.343 342.112H510.319C509.743 340.864 508.879 339.88 507.727 339.16C506.599 338.44 505.327 338.08 503.911 338.08C501.919 338.08 500.251 338.776 498.907 340.168C497.587 341.536 496.927 343.24 496.927 345.28C496.927 346.624 497.227 347.848 497.827 348.952C498.427 350.032 499.255 350.896 500.311 351.544C501.391 352.168 502.591 352.48 503.911 352.48C505.327 352.48 506.587 352.12 507.691 351.4C508.819 350.656 509.683 349.636 510.283 348.34H513.379C512.779 350.5 511.615 352.228 509.887 353.524C508.183 354.796 506.191 355.432 503.911 355.432ZM526.163 335.452H527.891V338.368H525.911C524.159 338.368 522.791 338.908 521.807 339.988C520.847 341.044 520.367 342.532 520.367 344.452V355H517.307V335.56H519.467L519.971 338.512C521.387 336.472 523.451 335.452 526.163 335.452ZM545.018 335.56H548.294L539.042 355.792C538.322 357.376 537.614 358.6 536.918 359.464C536.222 360.328 535.442 360.952 534.578 361.336C533.714 361.744 532.658 361.948 531.41 361.948H529.574V359.176H531.158C532.454 359.176 533.426 358.912 534.074 358.384C534.722 357.856 535.442 356.776 536.234 355.144L536.918 353.668L528.278 335.56H531.626L538.538 350.284L545.018 335.56Z" fill="#FFAA9E"/>
<path d="M375.901 295.728C377.181 295.728 378.333 296.024 379.357 296.616C380.381 297.192 381.181 298 381.757 299.04C382.333 300.08 382.621 301.24 382.621 302.52C382.621 304.472 381.981 306.096 380.701 307.392C379.437 308.672 377.837 309.312 375.901 309.312C374.237 309.312 372.805 308.792 371.605 307.752V313.656H368.941V296.04H370.741L371.245 297.624C372.493 296.36 374.045 295.728 375.901 295.728ZM372.661 305.568C373.461 306.368 374.469 306.768 375.685 306.768C376.917 306.768 377.933 306.368 378.733 305.568C379.533 304.752 379.933 303.736 379.933 302.52C379.933 301.304 379.533 300.296 378.733 299.496C377.933 298.68 376.925 298.272 375.709 298.272C374.909 298.272 374.181 298.456 373.525 298.824C372.869 299.192 372.357 299.704 371.989 300.36C371.637 301 371.461 301.72 371.461 302.52C371.461 303.736 371.861 304.752 372.661 305.568ZM391.464 295.968H392.616V298.488H391.224C389.016 298.488 387.912 299.688 387.912 302.088V309H385.248V296.04H387.048L387.504 297.816C388.432 296.584 389.752 295.968 391.464 295.968ZM406.414 302.544C406.414 302.784 406.398 303.08 406.366 303.432H395.854C396.014 304.472 396.446 305.296 397.15 305.904C397.87 306.512 398.758 306.816 399.814 306.816C400.326 306.816 400.806 306.744 401.254 306.6C401.702 306.44 402.094 306.224 402.43 305.952C402.782 305.664 403.07 305.32 403.294 304.92H406.102C405.59 306.296 404.774 307.376 403.654 308.16C402.534 308.928 401.254 309.312 399.814 309.312C397.91 309.312 396.318 308.664 395.038 307.368C393.774 306.072 393.142 304.456 393.142 302.52C393.142 300.584 393.774 298.968 395.038 297.672C396.318 296.376 397.91 295.728 399.814 295.728C401.11 295.728 402.262 296.04 403.27 296.664C404.278 297.272 405.054 298.096 405.598 299.136C406.142 300.16 406.414 301.296 406.414 302.544ZM399.814 298.128C398.822 298.128 397.974 298.408 397.27 298.968C396.582 299.528 396.126 300.296 395.902 301.272H403.75C403.59 300.616 403.326 300.056 402.958 299.592C402.59 299.112 402.134 298.752 401.59 298.512C401.062 298.256 400.47 298.128 399.814 298.128ZM413.322 309.312C411.738 309.312 410.466 308.912 409.506 308.112C408.546 307.312 408.05 306.24 408.018 304.896H410.634C410.666 305.552 410.93 306.064 411.426 306.432C411.938 306.784 412.602 306.96 413.418 306.96C413.898 306.96 414.322 306.896 414.69 306.768C415.074 306.64 415.378 306.448 415.602 306.192C415.826 305.936 415.938 305.632 415.938 305.28C415.938 305.04 415.882 304.832 415.77 304.656C415.658 304.464 415.522 304.312 415.362 304.2C415.202 304.088 414.97 303.984 414.666 303.888C414.378 303.792 414.114 303.72 413.874 303.672C413.65 303.624 413.346 303.568 412.962 303.504C412.562 303.44 412.242 303.384 412.002 303.336C411.762 303.288 411.458 303.216 411.09 303.12C410.722 303.008 410.418 302.896 410.178 302.784C409.954 302.656 409.706 302.496 409.434 302.304C409.162 302.112 408.946 301.896 408.786 301.656C408.642 301.416 408.514 301.128 408.402 300.792C408.306 300.44 408.258 300.056 408.258 299.64C408.258 298.472 408.714 297.528 409.626 296.808C410.554 296.088 411.77 295.728 413.274 295.728C414.778 295.728 415.986 296.104 416.898 296.856C417.81 297.608 418.274 298.616 418.29 299.88H415.77C415.754 299.272 415.522 298.808 415.074 298.488C414.626 298.152 414.01 297.984 413.226 297.984C412.49 297.984 411.906 298.128 411.474 298.416C411.042 298.704 410.826 299.08 410.826 299.544C410.826 299.736 410.858 299.904 410.922 300.048C410.986 300.192 411.09 300.32 411.234 300.432C411.394 300.544 411.538 300.64 411.666 300.72C411.81 300.784 412.018 300.848 412.29 300.912C412.562 300.976 412.786 301.024 412.962 301.056C413.138 301.088 413.394 301.128 413.73 301.176C414.162 301.256 414.482 301.32 414.69 301.368C414.914 301.4 415.226 301.472 415.626 301.584C416.026 301.68 416.338 301.784 416.562 301.896C416.786 302.008 417.042 302.168 417.33 302.376C417.634 302.568 417.858 302.792 418.002 303.048C418.162 303.288 418.298 303.592 418.41 303.96C418.522 304.328 418.578 304.728 418.578 305.16C418.578 306.424 418.098 307.432 417.138 308.184C416.178 308.936 414.906 309.312 413.322 309.312ZM425.504 309.312C423.92 309.312 422.648 308.912 421.688 308.112C420.728 307.312 420.232 306.24 420.2 304.896H422.816C422.848 305.552 423.112 306.064 423.608 306.432C424.12 306.784 424.784 306.96 425.6 306.96C426.08 306.96 426.504 306.896 426.872 306.768C427.256 306.64 427.56 306.448 427.784 306.192C428.008 305.936 428.12 305.632 428.12 305.28C428.12 305.04 428.064 304.832 427.952 304.656C427.84 304.464 427.704 304.312 427.544 304.2C427.384 304.088 427.152 303.984 426.848 303.888C426.56 303.792 426.296 303.72 426.056 303.672C425.832 303.624 425.528 303.568 425.144 303.504C424.744 303.44 424.424 303.384 424.184 303.336C423.944 303.288 423.64 303.216 423.272 303.12C422.904 303.008 422.6 302.896 422.36 302.784C422.136 302.656 421.888 302.496 421.616 302.304C421.344 302.112 421.128 301.896 420.968 301.656C420.824 301.416 420.696 301.128 420.584 300.792C420.488 300.44 420.44 300.056 420.44 299.64C420.44 298.472 420.896 297.528 421.808 296.808C422.736 296.088 423.952 295.728 425.456 295.728C426.96 295.728 428.168 296.104 429.08 296.856C429.992 297.608 430.456 298.616 430.472 299.88H427.952C427.936 299.272 427.704 298.808 427.256 298.488C426.808 298.152 426.192 297.984 425.408 297.984C424.672 297.984 424.088 298.128 423.656 298.416C423.224 298.704 423.008 299.08 423.008 299.544C423.008 299.736 423.04 299.904 423.104 300.048C423.168 300.192 423.272 300.32 423.416 300.432C423.576 300.544 423.72 300.64 423.848 300.72C423.992 300.784 424.2 300.848 424.472 300.912C424.744 300.976 424.968 301.024 425.144 301.056C425.32 301.088 425.576 301.128 425.912 301.176C426.344 301.256 426.664 301.32 426.872 301.368C427.096 301.4 427.408 301.472 427.808 301.584C428.208 301.68 428.52 301.784 428.744 301.896C428.968 302.008 429.224 302.168 429.512 302.376C429.816 302.568 430.04 302.792 430.184 303.048C430.344 303.288 430.48 303.592 430.592 303.96C430.704 304.328 430.76 304.728 430.76 305.16C430.76 306.424 430.28 307.432 429.32 308.184C428.36 308.936 427.088 309.312 425.504 309.312ZM444.582 306.576H446.046V309H444.078C443.134 309 442.318 308.816 441.63 308.448C440.942 308.08 440.414 307.552 440.046 306.864C439.678 306.16 439.494 305.336 439.494 304.392V298.32H437.166V297.816L441.678 293.016H442.134V296.04H445.974V298.32H442.158V304.176C442.158 304.944 442.366 305.536 442.782 305.952C443.198 306.368 443.798 306.576 444.582 306.576ZM459.181 307.392C457.869 308.672 456.221 309.312 454.237 309.312C452.253 309.312 450.597 308.672 449.269 307.392C447.957 306.096 447.301 304.472 447.301 302.52C447.301 301.24 447.597 300.08 448.189 299.04C448.797 298 449.629 297.192 450.685 296.616C451.757 296.024 452.941 295.728 454.237 295.728C455.533 295.728 456.709 296.024 457.765 296.616C458.837 297.192 459.669 298 460.261 299.04C460.869 300.08 461.173 301.24 461.173 302.52C461.173 304.472 460.509 306.096 459.181 307.392ZM454.237 306.768C455.053 306.768 455.781 306.592 456.421 306.24C457.061 305.872 457.557 305.368 457.909 304.728C458.277 304.072 458.461 303.336 458.461 302.52C458.461 301.288 458.061 300.272 457.261 299.472C456.477 298.672 455.469 298.272 454.237 298.272C453.005 298.272 451.989 298.672 451.189 299.472C450.405 300.272 450.013 301.288 450.013 302.52C450.013 303.752 450.405 304.768 451.189 305.568C451.989 306.368 453.005 306.768 454.237 306.768ZM475.41 309.312C473.49 309.312 471.874 308.664 470.562 307.368C469.266 306.056 468.618 304.44 468.618 302.52C468.618 300.584 469.266 298.968 470.562 297.672C471.874 296.376 473.498 295.728 475.434 295.728C477.018 295.728 478.394 296.176 479.562 297.072C480.73 297.968 481.49 299.16 481.842 300.648H479.202C478.866 299.912 478.362 299.336 477.69 298.92C477.018 298.488 476.258 298.272 475.41 298.272C474.658 298.272 473.97 298.456 473.346 298.824C472.722 299.192 472.226 299.704 471.858 300.36C471.506 301 471.33 301.72 471.33 302.52C471.33 303.72 471.722 304.728 472.506 305.544C473.29 306.36 474.258 306.768 475.41 306.768C476.258 306.768 477.01 306.552 477.666 306.12C478.338 305.688 478.85 305.072 479.202 304.272H481.89C481.522 305.792 480.746 307.016 479.562 307.944C478.394 308.856 477.01 309.312 475.41 309.312ZM495.188 307.392C493.876 308.672 492.228 309.312 490.244 309.312C488.26 309.312 486.604 308.672 485.276 307.392C483.964 306.096 483.308 304.472 483.308 302.52C483.308 301.24 483.604 300.08 484.196 299.04C484.804 298 485.636 297.192 486.692 296.616C487.764 296.024 488.948 295.728 490.244 295.728C491.54 295.728 492.716 296.024 493.772 296.616C494.844 297.192 495.676 298 496.268 299.04C496.876 300.08 497.18 301.24 497.18 302.52C497.18 304.472 496.516 306.096 495.188 307.392ZM490.244 306.768C491.06 306.768 491.788 306.592 492.428 306.24C493.068 305.872 493.564 305.368 493.916 304.728C494.284 304.072 494.468 303.336 494.468 302.52C494.468 301.288 494.068 300.272 493.268 299.472C492.484 298.672 491.476 298.272 490.244 298.272C489.012 298.272 487.996 298.672 487.196 299.472C486.412 300.272 486.02 301.288 486.02 302.52C486.02 303.752 486.412 304.768 487.196 305.568C487.996 306.368 489.012 306.768 490.244 306.768ZM506.642 295.752C508.146 295.752 509.338 296.256 510.218 297.264C511.114 298.272 511.562 299.584 511.562 301.2V309H508.898V301.728C508.898 300.56 508.642 299.672 508.13 299.064C507.634 298.44 506.898 298.128 505.922 298.128C504.914 298.128 504.082 298.496 503.426 299.232C502.77 299.968 502.442 300.912 502.442 302.064V309H499.778V296.04H501.626L502.154 297.84C502.65 297.184 503.282 296.672 504.05 296.304C504.834 295.936 505.698 295.752 506.642 295.752ZM520.603 306.576H522.067V309H520.099C519.155 309 518.339 308.816 517.651 308.448C516.963 308.08 516.435 307.552 516.067 306.864C515.699 306.16 515.515 305.336 515.515 304.392V298.32H513.187V297.816L517.699 293.016H518.155V296.04H521.995V298.32H518.179V304.176C518.179 304.944 518.387 305.536 518.803 305.952C519.219 306.368 519.819 306.576 520.603 306.576ZM524.375 294.024V291.288H527.135V294.024H524.375ZM524.423 309V296.04H527.087V309H524.423ZM537.492 295.752C538.996 295.752 540.188 296.256 541.068 297.264C541.964 298.272 542.412 299.584 542.412 301.2V309H539.748V301.728C539.748 300.56 539.492 299.672 538.98 299.064C538.484 298.44 537.748 298.128 536.772 298.128C535.764 298.128 534.932 298.496 534.276 299.232C533.62 299.968 533.292 300.912 533.292 302.064V309H530.628V296.04H532.476L533.004 297.84C533.5 297.184 534.132 296.672 534.9 296.304C535.684 295.936 536.548 295.752 537.492 295.752ZM551.474 309.312C549.698 309.312 548.274 308.784 547.202 307.728C546.13 306.672 545.594 305.272 545.594 303.528V296.04H548.258V303.144C548.258 304.28 548.546 305.168 549.122 305.808C549.698 306.448 550.482 306.768 551.474 306.768C552.482 306.768 553.274 306.448 553.85 305.808C554.426 305.152 554.714 304.264 554.714 303.144V296.04H557.378V303.528C557.378 305.272 556.842 306.672 555.77 307.728C554.698 308.784 553.266 309.312 551.474 309.312ZM573.022 302.544C573.022 302.784 573.006 303.08 572.974 303.432H562.462C562.622 304.472 563.054 305.296 563.758 305.904C564.478 306.512 565.366 306.816 566.422 306.816C566.934 306.816 567.414 306.744 567.862 306.6C568.31 306.44 568.702 306.224 569.038 305.952C569.39 305.664 569.678 305.32 569.902 304.92H572.71C572.198 306.296 571.382 307.376 570.262 308.16C569.142 308.928 567.862 309.312 566.422 309.312C564.518 309.312 562.926 308.664 561.646 307.368C560.382 306.072 559.75 304.456 559.75 302.52C559.75 300.584 560.382 298.968 561.646 297.672C562.926 296.376 564.518 295.728 566.422 295.728C567.718 295.728 568.87 296.04 569.878 296.664C570.886 297.272 571.662 298.096 572.206 299.136C572.75 300.16 573.022 301.296 573.022 302.544ZM566.422 298.128C565.43 298.128 564.582 298.408 563.878 298.968C563.19 299.528 562.734 300.296 562.51 301.272H570.358C570.198 300.616 569.934 300.056 569.566 299.592C569.198 299.112 568.742 298.752 568.198 298.512C567.67 298.256 567.078 298.128 566.422 298.128Z" fill="#FFDEE8"/>
</g>
<defs>
<filter id="filter0_d_504_1245" x="0" y="0" width="940" height="600" filterUnits="userSpaceOnUse" color-interpolation-filters="sRGB">
<feFlood flood-opacity="0" result="BackgroundImageFix"/>
<feColorMatrix in="SourceAlpha" type="matrix" values="0 0 0 0 0 0 0 0 0 0 0 0 0 0 0 0 0 0 127 0" result="hardAlpha"/>
<feMorphology radius="100" operator="dilate" in="SourceAlpha" result="effect1_dropShadow_504_1245"/>
<feOffset/>
<feGaussianBlur stdDeviation="60"/>
<feComposite in2="hardAlpha" operator="out"/>
<feColorMatrix type="matrix" values="0 0 0 0 0.2 0 0 0 0 0.211765 0 0 0 0 0.231373 0 0 0 0.8 0"/>
<feBlend mode="normal" in2="BackgroundImageFix" result="effect1_dropShadow_504_1245"/>
<feBlend mode="normal" in="SourceGraphic" in2="effect1_dropShadow_504_1245" result="shape"/>
</filter>
</defs>
</svg>
