<svg width="940" height="600" viewBox="0 0 940 600" fill="none" xmlns="http://www.w3.org/2000/svg">
<g filter="url(#filter0_d_504_1265)">
<rect x="220" y="220" width="500" height="160" rx="30" fill="#711AB6"/>
<rect x="221" y="221" width="498" height="158" rx="29" stroke="#D0AAEE" stroke-width="2"/>
<path d="M381.741 257.508H395.241C395.169 261.3 393.957 264.408 391.605 266.832C389.277 269.232 386.289 270.432 382.641 270.432C378.945 270.432 375.885 269.208 373.461 266.76C371.061 264.288 369.861 261.168 369.861 257.4C369.861 253.656 371.061 250.56 373.461 248.112C375.885 245.64 378.921 244.404 382.569 244.404C384.585 244.404 386.457 244.8 388.185 245.592C389.937 246.36 391.389 247.44 392.541 248.832C393.717 250.224 394.485 251.808 394.845 253.584H391.605C391.245 252.384 390.633 251.328 389.769 250.416C388.905 249.48 387.849 248.76 386.601 248.256C385.377 247.752 384.057 247.5 382.641 247.5C380.817 247.5 379.173 247.92 377.709 248.76C376.269 249.6 375.141 250.776 374.325 252.288C373.509 253.8 373.101 255.504 373.101 257.4C373.101 260.328 373.977 262.716 375.729 264.564C377.505 266.412 379.809 267.336 382.641 267.336C384.177 267.336 385.581 267.048 386.853 266.472C388.149 265.896 389.217 265.092 390.057 264.06C390.921 263.028 391.509 261.84 391.821 260.496H381.741V257.508ZM416.152 250.56H418.6V270H416.044L415.72 267.048C414.808 268.128 413.692 268.968 412.372 269.568C411.076 270.144 409.648 270.432 408.088 270.432C405.232 270.432 402.844 269.472 400.924 267.552C399.004 265.608 398.044 263.184 398.044 260.28C398.044 257.376 399.004 254.964 400.924 253.044C402.844 251.1 405.232 250.128 408.088 250.128C409.672 250.128 411.112 250.428 412.408 251.028C413.728 251.628 414.844 252.468 415.756 253.548L416.152 250.56ZM403.192 265.428C404.56 266.796 406.276 267.48 408.34 267.48C410.404 267.48 412.108 266.796 413.452 265.428C414.796 264.06 415.468 262.344 415.468 260.28C415.468 258.216 414.796 256.5 413.452 255.132C412.108 253.764 410.404 253.08 408.34 253.08C406.276 253.08 404.56 253.776 403.192 255.168C401.848 256.536 401.176 258.24 401.176 260.28C401.176 262.32 401.848 264.036 403.192 265.428ZM445.86 250.128C447.228 250.128 448.428 250.452 449.46 251.1C450.492 251.724 451.284 252.6 451.836 253.728C452.412 254.856 452.7 256.14 452.7 257.58V270H449.64V258.516C449.64 257.364 449.46 256.368 449.1 255.528C448.764 254.688 448.26 254.052 447.588 253.62C446.94 253.164 446.16 252.936 445.248 252.936C443.832 252.936 442.608 253.548 441.576 254.772C440.568 255.972 440.064 257.46 440.064 259.236V270H437.076V258.516C437.076 256.764 436.68 255.396 435.888 254.412C435.12 253.428 434.04 252.936 432.648 252.936C431.952 252.936 431.28 253.104 430.632 253.44C430.008 253.752 429.456 254.184 428.976 254.736C428.52 255.288 428.148 255.96 427.86 256.752C427.596 257.52 427.464 258.348 427.464 259.236V270H424.404V250.56H426.6L427.104 253.224C427.464 252.744 427.872 252.312 428.328 251.928C428.808 251.544 429.312 251.22 429.84 250.956C430.368 250.692 430.932 250.488 431.532 250.344C432.132 250.2 432.732 250.128 433.332 250.128C434.7 250.128 435.9 250.464 436.932 251.136C437.964 251.784 438.744 252.684 439.272 253.836C439.752 253.068 440.34 252.408 441.036 251.856C441.732 251.304 442.488 250.884 443.304 250.596C444.144 250.284 444.996 250.128 445.86 250.128ZM476.431 260.352C476.431 260.616 476.407 260.988 476.359 261.468H459.763C460.003 263.268 460.747 264.72 461.995 265.824C463.243 266.904 464.779 267.444 466.603 267.444C467.947 267.444 469.135 267.156 470.167 266.58C471.223 265.98 472.063 265.14 472.687 264.06H475.891C475.075 266.076 473.851 267.648 472.219 268.776C470.587 269.88 468.715 270.432 466.603 270.432C463.795 270.432 461.443 269.46 459.547 267.516C457.651 265.572 456.703 263.16 456.703 260.28C456.703 257.376 457.651 254.964 459.547 253.044C461.443 251.1 463.795 250.128 466.603 250.128C469.507 250.128 471.871 251.112 473.695 253.08C475.519 255.048 476.431 257.472 476.431 260.352ZM466.603 253.044C465.451 253.044 464.395 253.272 463.435 253.728C462.499 254.184 461.719 254.844 461.095 255.708C460.471 256.548 460.051 257.52 459.835 258.624H473.335C473.119 257.496 472.699 256.512 472.075 255.672C471.451 254.808 470.671 254.16 469.735 253.728C468.799 253.272 467.755 253.044 466.603 253.044ZM510.975 266.724C508.479 269.196 505.323 270.432 501.507 270.432C497.715 270.432 494.571 269.196 492.075 266.724C489.579 264.252 488.331 261.156 488.331 257.436C488.331 253.692 489.579 250.584 492.075 248.112C494.571 245.616 497.715 244.368 501.507 244.368C505.323 244.368 508.479 245.604 510.975 248.076C513.471 250.548 514.719 253.656 514.719 257.4C514.719 261.144 513.471 264.252 510.975 266.724ZM494.379 264.492C496.275 266.388 498.651 267.336 501.507 267.336C504.387 267.336 506.763 266.4 508.635 264.528C510.531 262.632 511.479 260.256 511.479 257.4C511.479 254.544 510.531 252.18 508.635 250.308C506.763 248.412 504.387 247.464 501.507 247.464C498.651 247.464 496.275 248.412 494.379 250.308C492.507 252.204 491.571 254.568 491.571 257.4C491.571 260.232 492.507 262.596 494.379 264.492ZM532.727 250.56H535.859L527.651 270H524.879L516.455 250.56H519.659L526.247 266.04L532.727 250.56ZM556.87 260.352C556.87 260.616 556.846 260.988 556.798 261.468H540.202C540.442 263.268 541.186 264.72 542.434 265.824C543.682 266.904 545.218 267.444 547.042 267.444C548.386 267.444 549.574 267.156 550.606 266.58C551.662 265.98 552.502 265.14 553.126 264.06H556.33C555.514 266.076 554.29 267.648 552.658 268.776C551.026 269.88 549.154 270.432 547.042 270.432C544.234 270.432 541.882 269.46 539.986 267.516C538.09 265.572 537.142 263.16 537.142 260.28C537.142 257.376 538.09 254.964 539.986 253.044C541.882 251.1 544.234 250.128 547.042 250.128C549.946 250.128 552.31 251.112 554.134 253.08C555.958 255.048 556.87 257.472 556.87 260.352ZM547.042 253.044C545.89 253.044 544.834 253.272 543.874 253.728C542.938 254.184 542.158 254.844 541.534 255.708C540.91 256.548 540.49 257.52 540.274 258.624H553.774C553.558 257.496 553.138 256.512 552.514 255.672C551.89 254.808 551.11 254.16 550.174 253.728C549.238 253.272 548.194 253.044 547.042 253.044ZM569.932 250.452H571.66V253.368H569.68C567.928 253.368 566.56 253.908 565.576 254.988C564.616 256.044 564.136 257.532 564.136 259.452V270H561.076V250.56H563.236L563.74 253.512C565.156 251.472 567.22 250.452 569.932 250.452Z" fill="#EB08F0"/>
<path d="M304.813 327.8L295.525 342.956V353H292.285V342.956L283.033 327.8H286.489L293.905 339.968L301.357 327.8H304.813ZM314.322 353.432C312.402 353.432 310.65 353 309.066 352.136C307.482 351.248 306.246 350.036 305.358 348.5C304.47 346.94 304.026 345.2 304.026 343.28C304.026 340.352 304.998 337.928 306.942 336.008C308.91 334.088 311.37 333.128 314.322 333.128C316.266 333.128 318.018 333.572 319.578 334.46C321.162 335.324 322.398 336.536 323.286 338.096C324.198 339.632 324.654 341.36 324.654 343.28C324.654 346.184 323.67 348.608 321.702 350.552C319.734 352.472 317.274 353.432 314.322 353.432ZM309.174 348.464C310.542 349.808 312.258 350.48 314.322 350.48C316.41 350.48 318.126 349.808 319.47 348.464C320.838 347.096 321.522 345.368 321.522 343.28C321.522 341.192 320.838 339.476 319.47 338.132C318.126 336.764 316.41 336.08 314.322 336.08C312.258 336.08 310.542 336.764 309.174 338.132C307.83 339.476 307.158 341.192 307.158 343.28C307.158 345.368 307.83 347.096 309.174 348.464ZM337.225 353.432C334.609 353.432 332.509 352.652 330.925 351.092C329.365 349.508 328.585 347.408 328.585 344.792V333.56H331.645V344.288C331.645 345.56 331.873 346.664 332.329 347.6C332.785 348.512 333.433 349.22 334.273 349.724C335.113 350.228 336.097 350.48 337.225 350.48C338.953 350.48 340.309 349.928 341.293 348.824C342.277 347.72 342.769 346.208 342.769 344.288V333.56H345.829V344.792C345.829 347.408 345.049 349.508 343.489 351.092C341.929 352.652 339.841 353.432 337.225 353.432ZM360.187 333.452H361.915V336.368H359.935C358.183 336.368 356.815 336.908 355.831 337.988C354.871 339.044 354.391 340.532 354.391 342.452V353H351.331V333.56H353.491L353.995 336.512C355.411 334.472 357.475 333.452 360.187 333.452ZM379.056 353.432C377.52 353.432 376.176 353.18 375.024 352.676C373.872 352.148 372.972 351.404 372.324 350.444C371.676 349.46 371.328 348.32 371.28 347.024H374.268C374.34 348.152 374.82 349.028 375.708 349.652C376.596 350.276 377.736 350.588 379.128 350.588C380.496 350.588 381.6 350.324 382.44 349.796C383.28 349.244 383.7 348.5 383.7 347.564C383.7 347.204 383.64 346.88 383.52 346.592C383.424 346.304 383.244 346.052 382.98 345.836C382.716 345.62 382.452 345.44 382.188 345.296C381.924 345.152 381.564 345.02 381.108 344.9C380.676 344.78 380.292 344.696 379.956 344.648C379.644 344.576 379.212 344.492 378.66 344.396C378.036 344.3 377.556 344.216 377.22 344.144C376.884 344.072 376.428 343.964 375.852 343.82C375.276 343.652 374.82 343.484 374.484 343.316C374.148 343.148 373.776 342.92 373.368 342.632C372.96 342.344 372.648 342.032 372.432 341.696C372.216 341.36 372.024 340.94 371.856 340.436C371.712 339.932 371.64 339.368 371.64 338.744C371.64 337.928 371.808 337.172 372.144 336.476C372.504 335.78 372.996 335.192 373.62 334.712C374.268 334.208 375.048 333.824 375.96 333.56C376.872 333.272 377.868 333.128 378.948 333.128C381.156 333.128 382.92 333.668 384.24 334.748C385.56 335.828 386.244 337.292 386.292 339.14H383.412C383.364 338.444 383.148 337.856 382.764 337.376C382.404 336.872 381.888 336.5 381.216 336.26C380.568 335.996 379.8 335.864 378.912 335.864C378.024 335.864 377.256 335.984 376.608 336.224C375.96 336.44 375.456 336.764 375.096 337.196C374.76 337.628 374.592 338.12 374.592 338.672C374.592 339.056 374.688 339.404 374.88 339.716C375.072 340.004 375.288 340.244 375.528 340.436C375.768 340.604 376.14 340.772 376.644 340.94C377.148 341.084 377.568 341.192 377.904 341.264C378.264 341.312 378.768 341.396 379.416 341.516C380.088 341.612 380.58 341.696 380.892 341.768C381.228 341.816 381.696 341.924 382.296 342.092C382.92 342.236 383.4 342.392 383.736 342.56C384.072 342.728 384.456 342.968 384.888 343.28C385.344 343.568 385.68 343.904 385.896 344.288C386.112 344.648 386.304 345.104 386.472 345.656C386.64 346.184 386.724 346.772 386.724 347.42C386.724 349.244 386.016 350.708 384.6 351.812C383.208 352.892 381.36 353.432 379.056 353.432ZM399.565 353.432C397.669 353.432 395.941 353 394.381 352.136C392.845 351.248 391.633 350.024 390.745 348.464C389.881 346.904 389.449 345.176 389.449 343.28C389.449 340.376 390.409 337.964 392.329 336.044C394.273 334.1 396.685 333.128 399.565 333.128C401.869 333.128 403.861 333.764 405.541 335.036C407.245 336.308 408.397 338 408.997 340.112H405.973C405.397 338.864 404.533 337.88 403.381 337.16C402.253 336.44 400.981 336.08 399.565 336.08C397.573 336.08 395.905 336.776 394.561 338.168C393.241 339.536 392.581 341.24 392.581 343.28C392.581 344.624 392.881 345.848 393.481 346.952C394.081 348.032 394.909 348.896 395.965 349.544C397.045 350.168 398.245 350.48 399.565 350.48C400.981 350.48 402.241 350.12 403.345 349.4C404.473 348.656 405.337 347.636 405.937 346.34H409.033C408.433 348.5 407.269 350.228 405.541 351.524C403.837 352.796 401.845 353.432 399.565 353.432ZM421.709 353.432C419.789 353.432 418.037 353 416.453 352.136C414.869 351.248 413.633 350.036 412.745 348.5C411.857 346.94 411.413 345.2 411.413 343.28C411.413 340.352 412.385 337.928 414.329 336.008C416.297 334.088 418.757 333.128 421.709 333.128C423.653 333.128 425.405 333.572 426.965 334.46C428.549 335.324 429.785 336.536 430.673 338.096C431.585 339.632 432.041 341.36 432.041 343.28C432.041 346.184 431.057 348.608 429.089 350.552C427.121 352.472 424.661 353.432 421.709 353.432ZM416.561 348.464C417.929 349.808 419.645 350.48 421.709 350.48C423.797 350.48 425.513 349.808 426.857 348.464C428.225 347.096 428.909 345.368 428.909 343.28C428.909 341.192 428.225 339.476 426.857 338.132C425.513 336.764 423.797 336.08 421.709 336.08C419.645 336.08 417.929 336.764 416.561 338.132C415.217 339.476 414.545 341.192 414.545 343.28C414.545 345.368 415.217 347.096 416.561 348.464ZM445.188 333.452H446.916V336.368H444.936C443.184 336.368 441.816 336.908 440.832 337.988C439.872 339.044 439.392 340.532 439.392 342.452V353H436.332V333.56H438.492L438.996 336.512C440.412 334.472 442.476 333.452 445.188 333.452ZM467.441 343.352C467.441 343.616 467.417 343.988 467.369 344.468H450.773C451.013 346.268 451.757 347.72 453.005 348.824C454.253 349.904 455.789 350.444 457.613 350.444C458.957 350.444 460.145 350.156 461.177 349.58C462.233 348.98 463.073 348.14 463.697 347.06H466.901C466.085 349.076 464.861 350.648 463.229 351.776C461.597 352.88 459.725 353.432 457.613 353.432C454.805 353.432 452.453 352.46 450.557 350.516C448.661 348.572 447.713 346.16 447.713 343.28C447.713 340.376 448.661 337.964 450.557 336.044C452.453 334.1 454.805 333.128 457.613 333.128C460.517 333.128 462.881 334.112 464.705 336.08C466.529 338.048 467.441 340.472 467.441 343.352ZM457.613 336.044C456.461 336.044 455.405 336.272 454.445 336.728C453.509 337.184 452.729 337.844 452.105 338.708C451.481 339.548 451.061 340.52 450.845 341.624H464.345C464.129 340.496 463.709 339.512 463.085 338.672C462.461 337.808 461.681 337.16 460.745 336.728C459.809 336.272 458.765 336.044 457.613 336.044ZM477.803 353.432C476.267 353.432 474.923 353.18 473.771 352.676C472.619 352.148 471.719 351.404 471.071 350.444C470.423 349.46 470.075 348.32 470.027 347.024H473.015C473.087 348.152 473.567 349.028 474.455 349.652C475.343 350.276 476.483 350.588 477.875 350.588C479.243 350.588 480.347 350.324 481.187 349.796C482.027 349.244 482.447 348.5 482.447 347.564C482.447 347.204 482.387 346.88 482.267 346.592C482.171 346.304 481.991 346.052 481.727 345.836C481.463 345.62 481.199 345.44 480.935 345.296C480.671 345.152 480.311 345.02 479.855 344.9C479.423 344.78 479.039 344.696 478.703 344.648C478.391 344.576 477.959 344.492 477.407 344.396C476.783 344.3 476.303 344.216 475.967 344.144C475.631 344.072 475.175 343.964 474.599 343.82C474.023 343.652 473.567 343.484 473.231 343.316C472.895 343.148 472.523 342.92 472.115 342.632C471.707 342.344 471.395 342.032 471.179 341.696C470.963 341.36 470.771 340.94 470.603 340.436C470.459 339.932 470.387 339.368 470.387 338.744C470.387 337.928 470.555 337.172 470.891 336.476C471.251 335.78 471.743 335.192 472.367 334.712C473.015 334.208 473.795 333.824 474.707 333.56C475.619 333.272 476.615 333.128 477.695 333.128C479.903 333.128 481.667 333.668 482.987 334.748C484.307 335.828 484.991 337.292 485.039 339.14H482.159C482.111 338.444 481.895 337.856 481.511 337.376C481.151 336.872 480.635 336.5 479.963 336.26C479.315 335.996 478.547 335.864 477.659 335.864C476.771 335.864 476.003 335.984 475.355 336.224C474.707 336.44 474.203 336.764 473.843 337.196C473.507 337.628 473.339 338.12 473.339 338.672C473.339 339.056 473.435 339.404 473.627 339.716C473.819 340.004 474.035 340.244 474.275 340.436C474.515 340.604 474.887 340.772 475.391 340.94C475.895 341.084 476.315 341.192 476.651 341.264C477.011 341.312 477.515 341.396 478.163 341.516C478.835 341.612 479.327 341.696 479.639 341.768C479.975 341.816 480.443 341.924 481.043 342.092C481.667 342.236 482.147 342.392 482.483 342.56C482.819 342.728 483.203 342.968 483.635 343.28C484.091 343.568 484.427 343.904 484.643 344.288C484.859 344.648 485.051 345.104 485.219 345.656C485.387 346.184 485.471 346.772 485.471 347.42C485.471 349.244 484.763 350.708 483.347 351.812C481.955 352.892 480.107 353.432 477.803 353.432ZM498.662 330.176V326.684H501.974V330.176H498.662ZM498.806 353V333.56H501.866V353H498.806ZM513.813 353.432C512.277 353.432 510.933 353.18 509.781 352.676C508.629 352.148 507.729 351.404 507.081 350.444C506.433 349.46 506.085 348.32 506.037 347.024H509.025C509.097 348.152 509.577 349.028 510.465 349.652C511.353 350.276 512.493 350.588 513.885 350.588C515.253 350.588 516.357 350.324 517.197 349.796C518.037 349.244 518.457 348.5 518.457 347.564C518.457 347.204 518.397 346.88 518.277 346.592C518.181 346.304 518.001 346.052 517.737 345.836C517.473 345.62 517.209 345.44 516.945 345.296C516.681 345.152 516.321 345.02 515.865 344.9C515.433 344.78 515.049 344.696 514.713 344.648C514.401 344.576 513.969 344.492 513.417 344.396C512.793 344.3 512.313 344.216 511.977 344.144C511.641 344.072 511.185 343.964 510.609 343.82C510.033 343.652 509.577 343.484 509.241 343.316C508.905 343.148 508.533 342.92 508.125 342.632C507.717 342.344 507.405 342.032 507.189 341.696C506.973 341.36 506.781 340.94 506.613 340.436C506.469 339.932 506.397 339.368 506.397 338.744C506.397 337.928 506.565 337.172 506.901 336.476C507.261 335.78 507.753 335.192 508.377 334.712C509.025 334.208 509.805 333.824 510.717 333.56C511.629 333.272 512.625 333.128 513.705 333.128C515.913 333.128 517.677 333.668 518.997 334.748C520.317 335.828 521.001 337.292 521.049 339.14H518.169C518.121 338.444 517.905 337.856 517.521 337.376C517.161 336.872 516.645 336.5 515.973 336.26C515.325 335.996 514.557 335.864 513.669 335.864C512.781 335.864 512.013 335.984 511.365 336.224C510.717 336.44 510.213 336.764 509.853 337.196C509.517 337.628 509.349 338.12 509.349 338.672C509.349 339.056 509.445 339.404 509.637 339.716C509.829 340.004 510.045 340.244 510.285 340.436C510.525 340.604 510.897 340.772 511.401 340.94C511.905 341.084 512.325 341.192 512.661 341.264C513.021 341.312 513.525 341.396 514.173 341.516C514.845 341.612 515.337 341.696 515.649 341.768C515.985 341.816 516.453 341.924 517.053 342.092C517.677 342.236 518.157 342.392 518.493 342.56C518.829 342.728 519.213 342.968 519.645 343.28C520.101 343.568 520.437 343.904 520.653 344.288C520.869 344.648 521.061 345.104 521.229 345.656C521.397 346.184 521.481 346.772 521.481 347.42C521.481 349.244 520.773 350.708 519.357 351.812C517.965 352.892 516.117 353.432 513.813 353.432ZM552.996 343.352C552.996 343.616 552.972 343.988 552.924 344.468H536.328C536.568 346.268 537.312 347.72 538.56 348.824C539.808 349.904 541.344 350.444 543.168 350.444C544.512 350.444 545.7 350.156 546.732 349.58C547.788 348.98 548.628 348.14 549.252 347.06H552.456C551.64 349.076 550.416 350.648 548.784 351.776C547.152 352.88 545.28 353.432 543.168 353.432C540.36 353.432 538.008 352.46 536.112 350.516C534.216 348.572 533.268 346.16 533.268 343.28C533.268 340.376 534.216 337.964 536.112 336.044C538.008 334.1 540.36 333.128 543.168 333.128C546.072 333.128 548.436 334.112 550.26 336.08C552.084 338.048 552.996 340.472 552.996 343.352ZM543.168 336.044C542.016 336.044 540.96 336.272 540 336.728C539.064 337.184 538.284 337.844 537.66 338.708C537.036 339.548 536.616 340.52 536.4 341.624H549.9C549.684 340.496 549.264 339.512 548.64 338.672C548.016 337.808 547.236 337.16 546.3 336.728C545.364 336.272 544.32 336.044 543.168 336.044ZM578.658 333.128C580.026 333.128 581.226 333.452 582.258 334.1C583.29 334.724 584.082 335.6 584.634 336.728C585.21 337.856 585.498 339.14 585.498 340.58V353H582.438V341.516C582.438 340.364 582.258 339.368 581.898 338.528C581.562 337.688 581.058 337.052 580.386 336.62C579.738 336.164 578.958 335.936 578.046 335.936C576.63 335.936 575.406 336.548 574.374 337.772C573.366 338.972 572.862 340.46 572.862 342.236V353H569.874V341.516C569.874 339.764 569.478 338.396 568.686 337.412C567.918 336.428 566.838 335.936 565.446 335.936C564.75 335.936 564.078 336.104 563.43 336.44C562.806 336.752 562.254 337.184 561.774 337.736C561.318 338.288 560.946 338.96 560.658 339.752C560.394 340.52 560.262 341.348 560.262 342.236V353H557.202V333.56H559.398L559.902 336.224C560.262 335.744 560.67 335.312 561.126 334.928C561.606 334.544 562.11 334.22 562.638 333.956C563.166 333.692 563.73 333.488 564.33 333.344C564.93 333.2 565.53 333.128 566.13 333.128C567.498 333.128 568.698 333.464 569.73 334.136C570.762 334.784 571.542 335.684 572.07 336.836C572.55 336.068 573.138 335.408 573.834 334.856C574.53 334.304 575.286 333.884 576.102 333.596C576.942 333.284 577.794 333.128 578.658 333.128ZM601.345 333.128C604.249 333.128 606.637 334.088 608.509 336.008C610.405 337.928 611.353 340.352 611.353 343.28C611.353 346.184 610.405 348.608 608.509 350.552C606.637 352.472 604.249 353.432 601.345 353.432C598.417 353.432 596.005 352.424 594.109 350.408V359.948H591.049V333.56H593.137L593.749 336.548C594.661 335.468 595.765 334.628 597.061 334.028C598.381 333.428 599.809 333.128 601.345 333.128ZM601.129 350.48C603.193 350.48 604.897 349.796 606.241 348.428C607.585 347.06 608.257 345.344 608.257 343.28C608.257 341.216 607.585 339.5 606.241 338.132C604.897 336.764 603.193 336.08 601.129 336.08C599.065 336.08 597.349 336.776 595.981 338.168C594.637 339.536 593.965 341.24 593.965 343.28C593.965 344.624 594.265 345.848 594.865 346.952C595.489 348.056 596.353 348.92 597.457 349.544C598.561 350.168 599.785 350.48 601.129 350.48ZM623.431 350.156H625.555V353H623.035C620.947 353 619.303 352.4 618.103 351.2C616.903 349.976 616.303 348.308 616.303 346.196V336.332H612.883V335.792L618.895 329.456H619.363V333.56H625.447V336.332H619.363V346.088C619.363 346.976 619.519 347.72 619.831 348.32C620.143 348.92 620.599 349.376 621.199 349.688C621.823 350 622.567 350.156 623.431 350.156ZM643.501 333.56H646.777L637.525 353.792C636.805 355.376 636.097 356.6 635.401 357.464C634.705 358.328 633.925 358.952 633.061 359.336C632.197 359.744 631.141 359.948 629.893 359.948H628.057V357.176H629.641C630.937 357.176 631.909 356.912 632.557 356.384C633.205 355.856 633.925 354.776 634.717 353.144L635.401 351.668L626.761 333.56H630.109L637.021 348.284L643.501 333.56ZM650.411 346.088V327.08H653.471V346.088H650.411ZM650.195 353V349.184H653.723V353H650.195Z" fill="#EB08F0"/>
<path d="M334.17 294.728C335.45 294.728 336.602 295.024 337.626 295.616C338.65 296.192 339.45 297 340.026 298.04C340.602 299.08 340.89 300.24 340.89 301.52C340.89 303.472 340.25 305.096 338.97 306.392C337.706 307.672 336.106 308.312 334.17 308.312C332.506 308.312 331.074 307.792 329.874 306.752V312.656H327.21V295.04H329.01L329.514 296.624C330.762 295.36 332.314 294.728 334.17 294.728ZM330.93 304.568C331.73 305.368 332.738 305.768 333.954 305.768C335.186 305.768 336.202 305.368 337.002 304.568C337.802 303.752 338.202 302.736 338.202 301.52C338.202 300.304 337.802 299.296 337.002 298.496C336.202 297.68 335.194 297.272 333.978 297.272C333.178 297.272 332.45 297.456 331.794 297.824C331.138 298.192 330.626 298.704 330.258 299.36C329.906 300 329.73 300.72 329.73 301.52C329.73 302.736 330.13 303.752 330.93 304.568ZM349.733 294.968H350.885V297.488H349.493C347.285 297.488 346.181 298.688 346.181 301.088V308H343.517V295.04H345.317L345.773 296.816C346.701 295.584 348.021 294.968 349.733 294.968ZM364.683 301.544C364.683 301.784 364.667 302.08 364.635 302.432H354.123C354.283 303.472 354.715 304.296 355.419 304.904C356.139 305.512 357.027 305.816 358.083 305.816C358.595 305.816 359.075 305.744 359.523 305.6C359.971 305.44 360.363 305.224 360.699 304.952C361.051 304.664 361.339 304.32 361.563 303.92H364.371C363.859 305.296 363.043 306.376 361.923 307.16C360.803 307.928 359.523 308.312 358.083 308.312C356.179 308.312 354.587 307.664 353.307 306.368C352.043 305.072 351.411 303.456 351.411 301.52C351.411 299.584 352.043 297.968 353.307 296.672C354.587 295.376 356.179 294.728 358.083 294.728C359.379 294.728 360.531 295.04 361.539 295.664C362.547 296.272 363.323 297.096 363.867 298.136C364.411 299.16 364.683 300.296 364.683 301.544ZM358.083 297.128C357.091 297.128 356.243 297.408 355.539 297.968C354.851 298.528 354.395 299.296 354.171 300.272H362.019C361.859 299.616 361.595 299.056 361.227 298.592C360.859 298.112 360.403 297.752 359.859 297.512C359.331 297.256 358.739 297.128 358.083 297.128ZM371.591 308.312C370.007 308.312 368.735 307.912 367.775 307.112C366.815 306.312 366.319 305.24 366.287 303.896H368.903C368.935 304.552 369.199 305.064 369.695 305.432C370.207 305.784 370.871 305.96 371.687 305.96C372.167 305.96 372.591 305.896 372.959 305.768C373.343 305.64 373.647 305.448 373.871 305.192C374.095 304.936 374.207 304.632 374.207 304.28C374.207 304.04 374.151 303.832 374.039 303.656C373.927 303.464 373.791 303.312 373.631 303.2C373.471 303.088 373.239 302.984 372.935 302.888C372.647 302.792 372.383 302.72 372.143 302.672C371.919 302.624 371.615 302.568 371.231 302.504C370.831 302.44 370.511 302.384 370.271 302.336C370.031 302.288 369.727 302.216 369.359 302.12C368.991 302.008 368.687 301.896 368.447 301.784C368.223 301.656 367.975 301.496 367.703 301.304C367.431 301.112 367.215 300.896 367.055 300.656C366.911 300.416 366.783 300.128 366.671 299.792C366.575 299.44 366.527 299.056 366.527 298.64C366.527 297.472 366.983 296.528 367.895 295.808C368.823 295.088 370.039 294.728 371.543 294.728C373.047 294.728 374.255 295.104 375.167 295.856C376.079 296.608 376.543 297.616 376.559 298.88H374.039C374.023 298.272 373.791 297.808 373.343 297.488C372.895 297.152 372.279 296.984 371.495 296.984C370.759 296.984 370.175 297.128 369.743 297.416C369.311 297.704 369.095 298.08 369.095 298.544C369.095 298.736 369.127 298.904 369.191 299.048C369.255 299.192 369.359 299.32 369.503 299.432C369.663 299.544 369.807 299.64 369.935 299.72C370.079 299.784 370.287 299.848 370.559 299.912C370.831 299.976 371.055 300.024 371.231 300.056C371.407 300.088 371.663 300.128 371.999 300.176C372.431 300.256 372.751 300.32 372.959 300.368C373.183 300.4 373.495 300.472 373.895 300.584C374.295 300.68 374.607 300.784 374.831 300.896C375.055 301.008 375.311 301.168 375.599 301.376C375.903 301.568 376.127 301.792 376.271 302.048C376.431 302.288 376.567 302.592 376.679 302.96C376.791 303.328 376.847 303.728 376.847 304.16C376.847 305.424 376.367 306.432 375.407 307.184C374.447 307.936 373.175 308.312 371.591 308.312ZM383.773 308.312C382.189 308.312 380.917 307.912 379.957 307.112C378.997 306.312 378.501 305.24 378.469 303.896H381.085C381.117 304.552 381.381 305.064 381.877 305.432C382.389 305.784 383.053 305.96 383.869 305.96C384.349 305.96 384.773 305.896 385.141 305.768C385.525 305.64 385.829 305.448 386.053 305.192C386.277 304.936 386.389 304.632 386.389 304.28C386.389 304.04 386.333 303.832 386.221 303.656C386.109 303.464 385.973 303.312 385.813 303.2C385.653 303.088 385.421 302.984 385.117 302.888C384.829 302.792 384.565 302.72 384.325 302.672C384.101 302.624 383.797 302.568 383.413 302.504C383.013 302.44 382.693 302.384 382.453 302.336C382.213 302.288 381.909 302.216 381.541 302.12C381.173 302.008 380.869 301.896 380.629 301.784C380.405 301.656 380.157 301.496 379.885 301.304C379.613 301.112 379.397 300.896 379.237 300.656C379.093 300.416 378.965 300.128 378.853 299.792C378.757 299.44 378.709 299.056 378.709 298.64C378.709 297.472 379.165 296.528 380.077 295.808C381.005 295.088 382.221 294.728 383.725 294.728C385.229 294.728 386.437 295.104 387.349 295.856C388.261 296.608 388.725 297.616 388.741 298.88H386.221C386.205 298.272 385.973 297.808 385.525 297.488C385.077 297.152 384.461 296.984 383.677 296.984C382.941 296.984 382.357 297.128 381.925 297.416C381.493 297.704 381.277 298.08 381.277 298.544C381.277 298.736 381.309 298.904 381.373 299.048C381.437 299.192 381.541 299.32 381.685 299.432C381.845 299.544 381.989 299.64 382.117 299.72C382.261 299.784 382.469 299.848 382.741 299.912C383.013 299.976 383.237 300.024 383.413 300.056C383.589 300.088 383.845 300.128 384.181 300.176C384.613 300.256 384.933 300.32 385.141 300.368C385.365 300.4 385.677 300.472 386.077 300.584C386.477 300.68 386.789 300.784 387.013 300.896C387.237 301.008 387.493 301.168 387.781 301.376C388.085 301.568 388.309 301.792 388.453 302.048C388.613 302.288 388.749 302.592 388.861 302.96C388.973 303.328 389.029 303.728 389.029 304.16C389.029 305.424 388.549 306.432 387.589 307.184C386.629 307.936 385.357 308.312 383.773 308.312ZM402.851 305.576H404.315V308H402.347C401.403 308 400.587 307.816 399.899 307.448C399.211 307.08 398.683 306.552 398.315 305.864C397.947 305.16 397.763 304.336 397.763 303.392V297.32H395.435V296.816L399.947 292.016H400.403V295.04H404.243V297.32H400.427V303.176C400.427 303.944 400.635 304.536 401.051 304.952C401.467 305.368 402.067 305.576 402.851 305.576ZM417.45 306.392C416.138 307.672 414.49 308.312 412.506 308.312C410.522 308.312 408.866 307.672 407.538 306.392C406.226 305.096 405.57 303.472 405.57 301.52C405.57 300.24 405.866 299.08 406.458 298.04C407.066 297 407.898 296.192 408.954 295.616C410.026 295.024 411.21 294.728 412.506 294.728C413.802 294.728 414.978 295.024 416.034 295.616C417.106 296.192 417.938 297 418.53 298.04C419.138 299.08 419.442 300.24 419.442 301.52C419.442 303.472 418.778 305.096 417.45 306.392ZM412.506 305.768C413.322 305.768 414.05 305.592 414.69 305.24C415.33 304.872 415.826 304.368 416.178 303.728C416.546 303.072 416.73 302.336 416.73 301.52C416.73 300.288 416.33 299.272 415.53 298.472C414.746 297.672 413.738 297.272 412.506 297.272C411.274 297.272 410.258 297.672 409.458 298.472C408.674 299.272 408.282 300.288 408.282 301.52C408.282 302.752 408.674 303.768 409.458 304.568C410.258 305.368 411.274 305.768 412.506 305.768ZM445.943 305.576H447.407V308H445.439C444.015 308 442.887 307.592 442.055 306.776C441.239 305.944 440.831 304.816 440.831 303.392V297.32H438.527V296.816L443.039 292.016H443.471V295.04H447.335V297.32H443.495V303.176C443.495 303.944 443.703 304.536 444.119 304.952C444.551 305.368 445.159 305.576 445.943 305.576ZM432.575 300.176C433.007 300.256 433.327 300.32 433.535 300.368C433.743 300.4 434.047 300.472 434.447 300.584C434.863 300.68 435.183 300.784 435.407 300.896C435.631 301.008 435.887 301.168 436.175 301.376C436.479 301.568 436.703 301.792 436.847 302.048C437.007 302.288 437.143 302.592 437.255 302.96C437.367 303.328 437.423 303.728 437.423 304.16C437.423 305.424 436.943 306.432 435.983 307.184C435.023 307.936 433.751 308.312 432.167 308.312C430.583 308.312 429.311 307.912 428.351 307.112C427.391 306.312 426.895 305.24 426.863 303.896H429.479C429.511 304.552 429.775 305.064 430.271 305.432C430.783 305.784 431.447 305.96 432.263 305.96C432.743 305.96 433.167 305.896 433.535 305.768C433.919 305.64 434.223 305.448 434.447 305.192C434.671 304.936 434.783 304.632 434.783 304.28C434.783 304.088 434.751 303.912 434.687 303.752C434.623 303.592 434.511 303.456 434.351 303.344C434.207 303.216 434.055 303.112 433.895 303.032C433.735 302.952 433.527 302.88 433.271 302.816C433.015 302.736 432.783 302.68 432.575 302.648C432.383 302.6 432.127 302.552 431.807 302.504C431.471 302.44 431.191 302.392 430.967 302.36C430.759 302.312 430.487 302.248 430.151 302.168C429.831 302.088 429.567 302 429.359 301.904C429.151 301.808 428.911 301.696 428.639 301.568C428.383 301.424 428.175 301.264 428.015 301.088C427.855 300.896 427.695 300.688 427.535 300.464C427.391 300.224 427.279 299.952 427.199 299.648C427.135 299.344 427.103 299.008 427.103 298.64C427.103 297.472 427.559 296.528 428.471 295.808C429.399 295.088 430.615 294.728 432.119 294.728C433.623 294.728 434.831 295.104 435.743 295.856C436.655 296.608 437.119 297.616 437.135 298.88H434.615C434.599 298.272 434.367 297.808 433.919 297.488C433.471 297.152 432.855 296.984 432.071 296.984C431.335 296.984 430.751 297.128 430.319 297.416C429.887 297.704 429.671 298.08 429.671 298.544C429.671 298.736 429.703 298.904 429.767 299.048C429.831 299.192 429.935 299.32 430.079 299.432C430.239 299.544 430.383 299.64 430.511 299.72C430.655 299.784 430.863 299.848 431.135 299.912C431.407 299.976 431.631 300.024 431.807 300.056C431.983 300.088 432.239 300.128 432.575 300.176ZM460.908 295.04H462.972V308H460.812L460.548 306.416C459.3 307.68 457.74 308.312 455.868 308.312C453.932 308.312 452.316 307.664 451.02 306.368C449.74 305.072 449.1 303.456 449.1 301.52C449.1 299.568 449.74 297.952 451.02 296.672C452.316 295.376 453.932 294.728 455.868 294.728C457.772 294.728 459.348 295.368 460.596 296.648L460.908 295.04ZM453.012 304.568C453.828 305.368 454.844 305.768 456.06 305.768C457.292 305.768 458.3 305.368 459.084 304.568C459.884 303.752 460.284 302.736 460.284 301.52C460.284 300.288 459.884 299.272 459.084 298.472C458.3 297.672 457.292 297.272 456.06 297.272C455.26 297.272 454.532 297.456 453.876 297.824C453.236 298.192 452.732 298.704 452.364 299.36C451.996 300 451.812 300.72 451.812 301.52C451.812 302.736 452.212 303.752 453.012 304.568ZM482.395 305.528H483.907V308.024H482.059C480.587 308.024 479.411 307.592 478.531 306.728C477.667 305.848 477.235 304.672 477.235 303.2V297.344H474.499V295.064H477.235V291.344H479.899V295.064H483.859V297.344H479.899V303.056C479.899 303.856 480.115 304.472 480.547 304.904C480.979 305.32 481.595 305.528 482.395 305.528ZM468.787 296.84C469.715 295.624 471.035 295.016 472.747 295.016H473.587V297.488H472.507C470.299 297.488 469.195 298.688 469.195 301.088V308H466.531V295.04H468.331L468.787 296.84ZM498.954 294.752C500.458 294.752 501.65 295.256 502.53 296.264C503.426 297.272 503.874 298.584 503.874 300.2V308H501.21V300.728C501.21 299.56 500.954 298.672 500.442 298.064C499.946 297.44 499.21 297.128 498.234 297.128C497.226 297.128 496.394 297.496 495.738 298.232C495.082 298.968 494.754 299.912 494.754 301.064V308H492.09V295.04H493.938L494.466 296.84C494.962 296.184 495.594 295.672 496.362 295.304C497.146 294.936 498.01 294.752 498.954 294.752ZM519.56 301.544C519.56 301.784 519.544 302.08 519.512 302.432H509C509.16 303.472 509.592 304.296 510.296 304.904C511.016 305.512 511.904 305.816 512.96 305.816C513.472 305.816 513.952 305.744 514.4 305.6C514.848 305.44 515.24 305.224 515.576 304.952C515.928 304.664 516.216 304.32 516.44 303.92H519.248C518.736 305.296 517.92 306.376 516.8 307.16C515.68 307.928 514.4 308.312 512.96 308.312C511.056 308.312 509.464 307.664 508.184 306.368C506.92 305.072 506.288 303.456 506.288 301.52C506.288 299.584 506.92 297.968 508.184 296.672C509.464 295.376 511.056 294.728 512.96 294.728C514.256 294.728 515.408 295.04 516.416 295.664C517.424 296.272 518.2 297.096 518.744 298.136C519.288 299.16 519.56 300.296 519.56 301.544ZM512.96 297.128C511.968 297.128 511.12 297.408 510.416 297.968C509.728 298.528 509.272 299.296 509.048 300.272H516.896C516.736 299.616 516.472 299.056 516.104 298.592C515.736 298.112 515.28 297.752 514.736 297.512C514.208 297.256 513.616 297.128 512.96 297.128ZM537.395 295.04H540.059L535.715 308H533.555L530.219 300.104L526.883 308H524.723L520.403 295.04H523.139L526.067 303.776L529.787 295.184H530.651L534.419 303.848L537.395 295.04ZM558.222 295.04H559.974V306.296C559.974 307.672 559.71 308.856 559.182 309.848C558.67 310.856 557.926 311.624 556.95 312.152C555.974 312.696 554.822 312.968 553.494 312.968C551.846 312.968 550.462 312.56 549.342 311.744C548.222 310.944 547.494 309.824 547.158 308.384H549.822C550.062 309.088 550.518 309.632 551.19 310.016C551.878 310.4 552.638 310.592 553.47 310.592C554.622 310.592 555.558 310.24 556.278 309.536C556.998 308.832 557.358 307.872 557.358 306.656V306.08C556.158 307.104 554.726 307.616 553.062 307.616C551.27 307.616 549.75 307 548.502 305.768C547.27 304.52 546.654 302.992 546.654 301.184C546.654 299.376 547.27 297.848 548.502 296.6C549.75 295.352 551.27 294.728 553.062 294.728C554.966 294.728 556.542 295.392 557.79 296.72L558.222 295.04ZM553.374 305.144C553.934 305.144 554.462 305.048 554.958 304.856C555.454 304.648 555.878 304.376 556.23 304.04C556.582 303.688 556.854 303.264 557.046 302.768C557.254 302.272 557.358 301.744 557.358 301.184C557.358 300.032 556.982 299.08 556.23 298.328C555.478 297.576 554.526 297.2 553.374 297.2C552.222 297.2 551.262 297.584 550.494 298.352C549.742 299.104 549.366 300.048 549.366 301.184C549.366 302.32 549.742 303.264 550.494 304.016C551.262 304.768 552.222 305.144 553.374 305.144ZM574.371 295.04H576.435V308H574.275L574.011 306.416C572.763 307.68 571.203 308.312 569.331 308.312C567.395 308.312 565.779 307.664 564.483 306.368C563.203 305.072 562.563 303.456 562.563 301.52C562.563 299.568 563.203 297.952 564.483 296.672C565.779 295.376 567.395 294.728 569.331 294.728C571.235 294.728 572.811 295.368 574.059 296.648L574.371 295.04ZM566.475 304.568C567.291 305.368 568.307 305.768 569.523 305.768C570.755 305.768 571.763 305.368 572.547 304.568C573.347 303.752 573.747 302.736 573.747 301.52C573.747 300.288 573.347 299.272 572.547 298.472C571.763 297.672 570.755 297.272 569.523 297.272C568.723 297.272 567.995 297.456 567.339 297.824C566.699 298.192 566.195 298.704 565.827 299.36C565.459 300 565.275 300.72 565.275 301.52C565.275 302.736 565.675 303.752 566.475 304.568ZM594.49 294.752C595.85 294.752 596.954 295.216 597.802 296.144C598.65 297.072 599.074 298.28 599.074 299.768V308H596.41V300.416C596.41 299.728 596.306 299.136 596.098 298.64C595.906 298.144 595.618 297.768 595.234 297.512C594.866 297.256 594.418 297.128 593.89 297.128C593.01 297.128 592.282 297.488 591.706 298.208C591.13 298.912 590.842 299.816 590.842 300.92V308H588.226V300.416C588.226 299.36 588.01 298.552 587.578 297.992C587.146 297.416 586.522 297.128 585.706 297.128C584.842 297.128 584.114 297.488 583.522 298.208C582.946 298.912 582.658 299.816 582.658 300.92V308H579.994V295.04H581.89L582.346 296.72C582.842 296.096 583.442 295.616 584.146 295.28C584.85 294.928 585.594 294.752 586.378 294.752C587.242 294.752 588.01 294.952 588.682 295.352C589.354 295.752 589.882 296.304 590.266 297.008C590.73 296.304 591.338 295.752 592.09 295.352C592.842 294.952 593.642 294.752 594.49 294.752ZM614.753 301.544C614.753 301.784 614.737 302.08 614.705 302.432H604.193C604.353 303.472 604.785 304.296 605.489 304.904C606.209 305.512 607.097 305.816 608.153 305.816C608.665 305.816 609.145 305.744 609.593 305.6C610.041 305.44 610.433 305.224 610.769 304.952C611.121 304.664 611.409 304.32 611.633 303.92H614.441C613.929 305.296 613.113 306.376 611.993 307.16C610.873 307.928 609.593 308.312 608.153 308.312C606.249 308.312 604.657 307.664 603.377 306.368C602.113 305.072 601.481 303.456 601.481 301.52C601.481 299.584 602.113 297.968 603.377 296.672C604.657 295.376 606.249 294.728 608.153 294.728C609.449 294.728 610.601 295.04 611.609 295.664C612.617 296.272 613.393 297.096 613.937 298.136C614.481 299.16 614.753 300.296 614.753 301.544ZM608.153 297.128C607.161 297.128 606.313 297.408 605.609 297.968C604.921 298.528 604.465 299.296 604.241 300.272H612.089C611.929 299.616 611.665 299.056 611.297 298.592C610.929 298.112 610.473 297.752 609.929 297.512C609.401 297.256 608.809 297.128 608.153 297.128Z" fill="#F6EAFF"/>
</g>
<defs>
<filter id="filter0_d_504_1265" x="0" y="0" width="940" height="600" filterUnits="userSpaceOnUse" color-interpolation-filters="sRGB">
<feFlood flood-opacity="0" result="BackgroundImageFix"/>
<feColorMatrix in="SourceAlpha" type="matrix" values="0 0 0 0 0 0 0 0 0 0 0 0 0 0 0 0 0 0 127 0" result="hardAlpha"/>
<feMorphology radius="100" operator="dilate" in="SourceAlpha" result="effect1_dropShadow_504_1265"/>
<feOffset/>
<feGaussianBlur stdDeviation="60"/>
<feComposite in2="hardAlpha" operator="out"/>
<feColorMatrix type="matrix" values="0 0 0 0 0.2 0 0 0 0 0.211765 0 0 0 0 0.231373 0 0 0 0.8 0"/>
<feBlend mode="normal" in2="BackgroundImageFix" result="effect1_dropShadow_504_1265"/>
<feBlend mode="normal" in="SourceGraphic" in2="effect1_dropShadow_504_1265" result="shape"/>
</filter>
</defs>
</svg>
