<svg width="737" height="194" viewBox="0 0 737 194" fill="none" xmlns="http://www.w3.org/2000/svg">
<mask id="path-1-inside-1_386_12121" fill="white">
<path fill-rule="evenodd" clip-rule="evenodd" d="M308.86 0.00010156C302.075 -0.0214836 295.741 3.39887 292.038 9.08472L266.132 48.8601C262.441 54.527 256.136 57.9448 249.373 57.9448H20C8.95431 57.9448 0 66.8991 0 77.9448V174C0 185.046 8.9543 194 20 194H717C728.046 194 737 185.046 737 174V77.9448C737 66.8991 728.046 57.9448 717 57.9448H488.494C481.747 57.9448 475.456 54.5436 471.761 48.8991L445.922 9.42868C442.239 3.80306 435.976 0.404466 429.252 0.383077L308.86 0.00010156Z"/>
</mask>
<path fill-rule="evenodd" clip-rule="evenodd" d="M308.86 0.00010156C302.075 -0.0214836 295.741 3.39887 292.038 9.08472L266.132 48.8601C262.441 54.527 256.136 57.9448 249.373 57.9448H20C8.95431 57.9448 0 66.8991 0 77.9448V174C0 185.046 8.9543 194 20 194H717C728.046 194 737 185.046 737 174V77.9448C737 66.8991 728.046 57.9448 717 57.9448H488.494C481.747 57.9448 475.456 54.5436 471.761 48.8991L445.922 9.42868C442.239 3.80306 435.976 0.404466 429.252 0.383077L308.86 0.00010156Z" fill="#6D7073"/>
<path d="M292.038 9.08472L290.362 7.99319L290.362 7.99319L292.038 9.08472ZM308.86 0.00010156L308.867 -1.99989L308.86 0.00010156ZM445.922 9.42868L447.595 8.33325L447.595 8.33324L445.922 9.42868ZM429.252 0.383077L429.258 -1.61691L429.252 0.383077ZM471.761 48.8991L473.434 47.8037L471.761 48.8991ZM266.132 48.8601L267.807 49.9516L266.132 48.8601ZM293.714 10.1763C297.047 5.05898 302.747 1.98066 308.854 2.00009L308.867 -1.99989C301.403 -2.02363 294.436 1.73876 290.362 7.99319L293.714 10.1763ZM267.807 49.9516L293.714 10.1762L290.362 7.99319L264.456 47.7686L267.807 49.9516ZM20 59.9448H249.373V55.9448H20V59.9448ZM2 77.9448C2 68.0037 10.0589 59.9448 20 59.9448V55.9448C7.84974 55.9448 -2 65.7945 -2 77.9448H2ZM2 174V77.9448H-2V174H2ZM20 192C10.0589 192 2 183.941 2 174H-2C-2 186.15 7.84974 196 20 196V192ZM717 192H20V196H717V192ZM735 174C735 183.941 726.941 192 717 192V196C729.15 196 739 186.15 739 174H735ZM735 77.9448V174H739V77.9448H735ZM717 59.9448C726.941 59.9448 735 68.0037 735 77.9448H739C739 65.7945 729.15 55.9448 717 55.9448V59.9448ZM488.494 59.9448H717V55.9448H488.494V59.9448ZM444.248 10.5241L470.087 49.9945L473.434 47.8037L447.595 8.33325L444.248 10.5241ZM429.246 2.38307C435.297 2.40232 440.934 5.46105 444.248 10.5241L447.595 8.33324C443.544 2.14507 436.655 -1.59338 429.258 -1.61691L429.246 2.38307ZM308.854 2.00009L429.246 2.38307L429.258 -1.61691L308.867 -1.99989L308.854 2.00009ZM488.494 55.9448C482.422 55.9448 476.76 52.8837 473.434 47.8037L470.087 49.9945C474.152 56.2035 481.073 59.9448 488.494 59.9448V55.9448ZM264.456 47.7686C261.134 52.8688 255.459 55.9448 249.373 55.9448V59.9448C256.812 59.9448 263.747 56.1852 267.807 49.9516L264.456 47.7686Z" fill="#939BA7" mask="url(#path-1-inside-1_386_12121)"/>
</svg>
